Monda-Heavy.ufo
<glyph name="exclam" format="1">
  <advance width="777"/>
  <unicode hex="0021"/>
  <outline>
    <contour>
      <point x="221" y="0" type="line"/>
      <point x="524" y="0" type="line"/>
      <point x="524" y="292" type="line"/>
      <point x="221" y="292" type="line"/>
    </contour>
    <contour>
      <point x="327" y="457" type="curve"/>
      <point x="424" y="457" type="line"/>
      <point x="424" y="457"/>
      <point x="549" y="1719"/>
      <point x="549" y="1513" type="curve"/>
      <point x="224" y="1513" type="line"/>
      <point x="224" y="1719"/>
      <point x="327" y="457"/>
    </contour>
  </outline>
</glyph>
<glyph name="quotedbl" format="1">
  <advance width="678"/>
  <unicode hex="0022"/>
  <outline>
    <contour>
      <point x="149" y="870" type="line"/>
      <point x="221" y="870" type="line"/>
      <point x="290" y="1446" type="line"/>
      <point x="85" y="1446" type="line"/>
    </contour>
    <contour>
      <point x="452" y="870" type="line"/>
      <point x="524" y="870" type="line"/>
      <point x="593" y="1446" type="line"/>
      <point x="388" y="1446" type="line"/>
    </contour>
  </outline>
</glyph>
<glyph name="percent" format="1">
  <advance width="1813"/>
  <unicode hex="0025"/>
  <outline>
    <contour>
      <point x="352" y="763" type="curve" smooth="yes"/>
      <point x="214" y="763"/>
      <point x="197" y="868"/>
      <point x="197" y="1009" type="curve" smooth="yes"/>
      <point x="197" y="1104" type="line" smooth="yes"/>
      <point x="197" y="1240"/>
      <point x="209" y="1334"/>
      <point x="352" y="1334" type="curve" smooth="yes"/>
      <point x="496" y="1334"/>
      <point x="509" y="1240"/>
      <point x="509" y="1102" type="curve" smooth="yes"/>
      <point x="509" y="1009" type="line" smooth="yes"/>
      <point x="509" y="868"/>
      <point x="490" y="763"/>
    </contour>
    <contour>
      <point x="352" y="647" type="curve" smooth="yes"/>
      <point x="582" y="647"/>
      <point x="654" y="797"/>
      <point x="654" y="1026" type="curve" smooth="yes"/>
      <point x="654" y="1080" type="line" smooth="yes"/>
      <point x="652" y="1313"/>
      <point x="582" y="1450"/>
      <point x="352" y="1450" type="curve" smooth="yes"/>
      <point x="121" y="1450"/>
      <point x="54" y="1312"/>
      <point x="54" y="1079" type="curve" smooth="yes"/>
      <point x="54" y="1026" type="line" smooth="yes"/>
      <point x="54" y="798"/>
      <point x="122" y="647"/>
    </contour>
    <contour>
      <point x="1456" y="97" type="curve" smooth="yes"/>
      <point x="1318" y="97"/>
      <point x="1301" y="202"/>
      <point x="1301" y="343" type="curve" smooth="yes"/>
      <point x="1301" y="438" type="line" smooth="yes"/>
      <point x="1301" y="574"/>
      <point x="1313" y="668"/>
      <point x="1456" y="668" type="curve" smooth="yes"/>
      <point x="1600" y="668"/>
      <point x="1613" y="574"/>
      <point x="1613" y="436" type="curve" smooth="yes"/>
      <point x="1613" y="343" type="line" smooth="yes"/>
      <point x="1613" y="202"/>
      <point x="1594" y="97"/>
    </contour>
    <contour>
      <point x="1456" y="-19" type="curve" smooth="yes"/>
      <point x="1686" y="-19"/>
      <point x="1758" y="131"/>
      <point x="1758" y="360" type="curve" smooth="yes"/>
      <point x="1758" y="414" type="line" smooth="yes"/>
      <point x="1756" y="647"/>
      <point x="1686" y="784"/>
      <point x="1456" y="784" type="curve" smooth="yes"/>
      <point x="1225" y="784"/>
      <point x="1158" y="646"/>
      <point x="1158" y="413" type="curve" smooth="yes"/>
      <point x="1158" y="360" type="line" smooth="yes"/>
      <point x="1158" y="132"/>
      <point x="1226" y="-19"/>
    </contour>
    <contour>
      <point x="550" y="0" type="line"/>
      <point x="704" y="0" type="line"/>
      <point x="1242" y="1446" type="line"/>
      <point x="1093" y="1446" type="line"/>
    </contour>
  </outline>
</glyph>
<glyph name="comma" format="1">
  <advance width="696"/>
  <unicode hex="002C"/>
  <outline>
    <contour>
      <point x="362" y="-375" type="line"/>
      <point x="429" y="-315"/>
      <point x="585" y="-156"/>
      <point x="585" y="56" type="curve" smooth="yes"/>
      <point x="585" y="328" type="line"/>
      <point x="185" y="328" type="line"/>
      <point x="185" y="0" type="line"/>
      <point x="380" y="0" type="line"/>
      <point x="380" y="-146"/>
      <point x="280" y="-264"/>
      <point x="224" y="-325" type="curve"/>
    </contour>
  </outline>
</glyph>
<glyph name="slash" format="1">
  <advance width="850"/>
  <unicode hex="002F"/>
  <outline>
    <contour>
      <point x="33" y="0" type="line"/>
      <point x="156" y="0" type="line"/>
      <point x="872" y="1556" type="line"/>
      <point x="748" y="1556" type="line"/>
    </contour>
  </outline>
</glyph>
<glyph name="zero" format="1">
  <advance width="1048"/>
  <unicode hex="0030"/>
  <outline>
    <contour>
      <point x="521" y="275" type="curve" smooth="yes"/>
      <point x="402" y="275"/>
      <point x="374" y="374"/>
      <point x="374" y="347" type="curve" smooth="yes"/>
      <point x="374" y="1161" type="line" smooth="yes"/>
      <point x="374" y="1139"/>
      <point x="379" y="1228"/>
      <point x="521" y="1228" type="curve" smooth="yes"/>
      <point x="656" y="1228"/>
      <point x="678" y="1139"/>
      <point x="678" y="1161" type="curve" smooth="yes"/>
      <point x="678" y="347" type="line" smooth="yes"/>
      <point x="678" y="372"/>
      <point x="641" y="275"/>
    </contour>
    <contour>
      <point x="521" y="-32" type="curve" smooth="yes"/>
      <point x="826" y="-32"/>
      <point x="1012" y="100"/>
      <point x="1012" y="323" type="curve" smooth="yes"/>
      <point x="1012" y="1188" type="line" smooth="yes"/>
      <point x="1012" y="1418"/>
      <point x="840" y="1537"/>
      <point x="521" y="1537" type="curve" smooth="yes"/>
      <point x="209" y="1537"/>
      <point x="37" y="1413"/>
      <point x="37" y="1181" type="curve" smooth="yes"/>
      <point x="37" y="331" type="line" smooth="yes"/>
      <point x="37" y="105"/>
      <point x="220" y="-32"/>
    </contour>
  </outline>
</glyph>
<glyph name="seven" format="1">
  <advance width="1003"/>
  <unicode hex="0037"/>
  <outline>
    <contour>
      <point x="137" y="0" type="line"/>
      <point x="575" y="0" type="line"/>
      <point x="969" y="1248" type="line"/>
      <point x="969" y="1512" type="line"/>
      <point x="10" y="1512" type="line"/>
      <point x="10" y="1188" type="line"/>
      <point x="495" y="1188" type="line"/>
    </contour>
  </outline>
</glyph>
<glyph name="eight" format="1">
  <advance width="1006"/>
  <unicode hex="0038"/>
  <outline>
    <contour>
      <point x="506" y="-28" type="curve" smooth="yes"/>
      <point x="952" y="-28"/>
      <point x="1001" y="197"/>
      <point x="1001" y="474" type="curve" smooth="yes"/>
      <point x="1001" y="568"/>
      <point x="1052" y="697"/>
      <point x="967" y="796" type="curve"/>
      <point x="1014" y="888"/>
      <point x="984" y="1021"/>
      <point x="984" y="1097" type="curve" smooth="yes"/>
      <point x="984" y="1330"/>
      <point x="912" y="1538"/>
      <point x="503" y="1538" type="curve" smooth="yes"/>
      <point x="98" y="1538"/>
      <point x="19" y="1333"/>
      <point x="19" y="1097" type="curve" smooth="yes"/>
      <point x="19" y="1021"/>
      <point x="-7" y="888"/>
      <point x="38" y="796" type="curve"/>
      <point x="-48" y="697"/>
      <point x="6" y="566"/>
      <point x="6" y="474" type="curve" smooth="yes"/>
      <point x="6" y="198"/>
      <point x="59" y="-28"/>
    </contour>
    <contour>
      <point x="503" y="245" type="curve" smooth="yes"/>
      <point x="279" y="245"/>
      <point x="334" y="415"/>
      <point x="334" y="446" type="curve" smooth="yes"/>
      <point x="334" y="501"/>
      <point x="293" y="699"/>
      <point x="504" y="657" type="curve" smooth="yes"/>
      <point x="716" y="699"/>
      <point x="672" y="501"/>
      <point x="672" y="446" type="curve" smooth="yes"/>
      <point x="672" y="417"/>
      <point x="731" y="245"/>
    </contour>
    <contour>
      <point x="504" y="912" type="curve" smooth="yes"/>
      <point x="324" y="875"/>
      <point x="386" y="1087"/>
      <point x="386" y="1136" type="curve" smooth="yes"/>
      <point x="386" y="1158"/>
      <point x="381" y="1271"/>
      <point x="503" y="1271" type="curve" smooth="yes"/>
      <point x="630" y="1271"/>
      <point x="617" y="1155"/>
      <point x="617" y="1136" type="curve" smooth="yes"/>
      <point x="617" y="1089"/>
      <point x="684" y="874"/>
    </contour>
  </outline>
</glyph>
<glyph name="colon" format="1">
  <advance width="354"/>
  <unicode hex="003A"/>
  <outline>
    <contour>
      <point x="38" y="139" type="line"/>
      <point x="312" y="139" type="line"/>
      <point x="312" y="404" type="line"/>
      <point x="38" y="404" type="line"/>
    </contour>
    <contour>
      <point x="38" y="728" type="line"/>
      <point x="312" y="728" type="line"/>
      <point x="312" y="994" type="line"/>
      <point x="38" y="994" type="line"/>
    </contour>
  </outline>
</glyph>
<glyph name="less" format="1">
  <advance width="617"/>
  <unicode hex="003C"/>
  <outline>
    <contour>
      <point x="584" y="67" type="line"/>
      <point x="584" y="321" type="line"/>
      <point x="396" y="456"/>
      <point x="540" y="400"/>
      <point x="217" y="536" type="curve"/>
      <point x="584" y="749" type="line"/>
      <point x="584" y="1004" type="line"/>
      <point x="10" y="655" type="line"/>
      <point x="10" y="414" type="line"/>
    </contour>
  </outline>
</glyph>
<glyph name="equal" format="1">
  <advance width="299"/>
  <unicode hex="003D"/>
  <outline>
    <contour>
      <point x="-31" y="78" type="line"/>
      <point x="318" y="78" type="line"/>
      <point x="318" y="281" type="line"/>
      <point x="-31" y="281" type="line"/>
    </contour>
    <contour>
      <point x="-31" y="310" type="line"/>
      <point x="318" y="310" type="line"/>
      <point x="318" y="514" type="line"/>
      <point x="-31" y="514" type="line"/>
    </contour>
  </outline>
</glyph>
<glyph name="greater" format="1">
  <advance width="617"/>
  <unicode hex="003E"/>
  <outline>
    <contour>
      <point x="40" y="67" type="line"/>
      <point x="613" y="414" type="line"/>
      <point x="613" y="655" type="line"/>
      <point x="40" y="1004" type="line"/>
      <point x="40" y="748" type="line"/>
      <point x="407" y="537" type="line"/>
      <point x="40" y="320" type="line"/>
    </contour>
  </outline>
</glyph>
<glyph name="at" format="1">
  <advance width="1703"/>
  <unicode hex="0040"/>
  <outline>
    <contour>
      <point x="965" y="-28" type="curve" smooth="yes"/>
      <point x="1019" y="-28"/>
      <point x="1093" y="-21"/>
      <point x="1336" y="-9" type="curve"/>
      <point x="1115" y="202" type="line"/>
      <point x="1011" y="186"/>
      <point x="979" y="179"/>
      <point x="965" y="179" type="curve" smooth="yes"/>
      <point x="409" y="179"/>
      <point x="270" y="470"/>
      <point x="270" y="845" type="curve" smooth="yes"/>
      <point x="270" y="1261"/>
      <point x="562" y="1273"/>
      <point x="1130" y="1273" type="curve" smooth="yes"/>
      <point x="1727" y="1121"/>
      <point x="1873" y="741"/>
      <point x="1696" y="294" type="curve" smooth="yes"/>
      <point x="1483" y="218"/>
      <point x="1447" y="51"/>
      <point x="1228" y="171" type="curve" smooth="yes"/>
      <point x="1099" y="171"/>
      <point x="1191" y="274"/>
      <point x="1262" y="343" type="curve" smooth="yes"/>
      <point x="1468" y="393"/>
      <point x="1503" y="1195"/>
      <point x="1503" y="1278" type="curve"/>
      <point x="1503" y="1375"/>
      <point x="1073" y="1458"/>
      <point x="939" y="1458" type="curve"/>
      <point x="823" y="1458"/>
      <point x="754" y="1336"/>
      <point x="726" y="1293" type="curve"/>
      <point x="646" y="1392"/>
      <point x="516" y="1460"/>
      <point x="316" y="1460" type="curve" smooth="yes"/>
      <point x="-46" y="1460"/>
      <point x="-147" y="1046"/>
      <point x="-147" y="795" type="curve" smooth="yes"/>
      <point x="-147" y="532"/>
      <point x="-14" y="182"/>
      <point x="339" y="182" type="curve" smooth="yes"/>
      <point x="532" y="182"/>
      <point x="646" y="196"/>
      <point x="732" y="248" type="curve"/>
      <point x="819" y="146"/>
      <point x="951" y="-139"/>
      <point x="1144" y="-139" type="curve" smooth="yes"/>
      <point x="1594" y="-241"/>
      <point x="1729" y="-95"/>
      <point x="2059" y="213" type="curve" smooth="yes"/>
      <point x="2348" y="850"/>
      <point x="2098" y="1395"/>
      <point x="1232" y="1577" type="curve" smooth="yes"/>
      <point x="381" y="1577"/>
      <point x="8" y="1448"/>
      <point x="8" y="827" type="curve" smooth="yes"/>
      <point x="8" y="245"/>
      <point x="194" y="-28"/>
    </contour>
    <contour>
      <point x="782" y="498" type="curve" smooth="yes"/>
      <point x="638" y="498"/>
      <point x="654" y="612"/>
      <point x="658" y="634" type="curve" smooth="yes"/>
      <point x="661" y="688"/>
      <point x="627" y="912"/>
      <point x="798" y="879" type="curve" smooth="yes"/>
      <point x="767" y="859"/>
      <point x="743" y="821"/>
      <point x="738" y="790" type="curve"/>
      <point x="738" y="439" type="line"/>
      <point x="705" y="469"/>
      <point x="758" y="498"/>
    </contour>
  </outline>
</glyph>
<glyph name="A" format="1">
  <advance width="1683"/>
  <unicode hex="0041"/>
  <outline>
    <contour>
      <point x="80" y="0" type="line"/>
      <point x="516" y="0" type="line"/>
      <point x="588" y="279" type="line"/>
      <point x="1083" y="279" type="line"/>
      <point x="1149" y="0" type="line"/>
      <point x="1602" y="0" type="line"/>
      <point x="1165" y="1513" type="line"/>
      <point x="509" y="1513" type="line"/>
    </contour>
    <contour>
      <point x="660" y="549" type="line"/>
      <point x="845" y="1276" type="line"/>
      <point x="1014" y="549" type="line"/>
    </contour>
  </outline>
</glyph>
<glyph name="B" format="1">
  <advance width="1454"/>
  <unicode hex="0042"/>
  <outline>
    <contour>
      <point x="162" y="1" type="line"/>
      <point x="817" y="1" type="line" smooth="yes"/>
      <point x="1199" y="1"/>
      <point x="1332" y="156"/>
      <point x="1315" y="492" type="curve" smooth="yes"/>
      <point x="1315" y="712"/>
      <point x="1321" y="827"/>
      <point x="1069" y="840" type="curve"/>
      <point x="1258" y="874"/>
      <point x="1291" y="957"/>
      <point x="1290" y="1135" type="curve" smooth="yes"/>
      <point x="1290" y="1416"/>
      <point x="1158" y="1513"/>
      <point x="729" y="1513" type="curve" smooth="yes"/>
      <point x="162" y="1513" type="line"/>
    </contour>
    <contour>
      <point x="574" y="279" type="line"/>
      <point x="574" y="711" type="line"/>
      <point x="708" y="711" type="line" smooth="yes"/>
      <point x="931" y="711"/>
      <point x="903" y="639"/>
      <point x="903" y="475" type="curve" smooth="yes"/>
      <point x="903" y="323"/>
      <point x="955" y="279"/>
      <point x="715" y="279" type="curve" smooth="yes"/>
    </contour>
    <contour>
      <point x="574" y="942" type="line"/>
      <point x="574" y="1247" type="line"/>
      <point x="720" y="1247" type="line" smooth="yes"/>
      <point x="869" y="1247"/>
      <point x="863" y="1221"/>
      <point x="863" y="1131" type="curve" smooth="yes"/>
      <point x="863" y="994"/>
      <point x="881" y="942"/>
      <point x="719" y="942" type="curve" smooth="yes"/>
    </contour>
  </outline>
</glyph>
<glyph name="C" format="1">
  <advance width="1544"/>
  <unicode hex="0043"/>
  <outline>
    <contour>
      <point x="802" y="-32" type="curve" smooth="yes"/>
      <point x="1371" y="-32"/>
      <point x="1443" y="203"/>
      <point x="1443" y="485" type="curve" smooth="yes"/>
      <point x="1443" y="613" type="line"/>
      <point x="1035" y="613" type="line"/>
      <point x="1035" y="453" type="line" smooth="yes"/>
      <point x="1035" y="317"/>
      <point x="986" y="296"/>
      <point x="802" y="296" type="curve" smooth="yes"/>
      <point x="621" y="296"/>
      <point x="544" y="316"/>
      <point x="544" y="453" type="curve" smooth="yes"/>
      <point x="544" y="1047" type="line" smooth="yes"/>
      <point x="544" y="1183"/>
      <point x="624" y="1209"/>
      <point x="803" y="1209" type="curve" smooth="yes"/>
      <point x="984" y="1209"/>
      <point x="1035" y="1174"/>
      <point x="1035" y="1047" type="curve" smooth="yes"/>
      <point x="1035" y="906" type="line"/>
      <point x="1443" y="906" type="line"/>
      <point x="1443" y="1011" type="line" smooth="yes"/>
      <point x="1443" y="1300"/>
      <point x="1368" y="1537"/>
      <point x="803" y="1537" type="curve" smooth="yes"/>
      <point x="221" y="1537"/>
      <point x="132" y="1302"/>
      <point x="132" y="1013" type="curve" smooth="yes"/>
      <point x="132" y="481" type="line" smooth="yes"/>
      <point x="132" y="202"/>
      <point x="224" y="-32"/>
    </contour>
  </outline>
</glyph>
<glyph name="D" format="1">
  <advance width="1542"/>
  <unicode hex="0044"/>
  <outline>
    <contour>
      <point x="574" y="328" type="line"/>
      <point x="574" y="1185" type="line"/>
      <point x="853" y="1185" type="line" smooth="yes"/>
      <point x="1061" y="1185"/>
      <point x="997" y="1065"/>
      <point x="997" y="1035" type="curve" smooth="yes"/>
      <point x="997" y="479" type="line" smooth="yes"/>
      <point x="997" y="440"/>
      <point x="1064" y="328"/>
      <point x="853" y="328" type="curve" smooth="yes"/>
    </contour>
    <contour>
      <point x="162" y="0" type="line"/>
      <point x="887" y="0" type="line" smooth="yes"/>
      <point x="1360" y="0"/>
      <point x="1410" y="266"/>
      <point x="1410" y="539" type="curve" smooth="yes"/>
      <point x="1410" y="964" type="line" smooth="yes"/>
      <point x="1410" y="1269"/>
      <point x="1347" y="1513"/>
      <point x="888" y="1513" type="curve" smooth="yes"/>
      <point x="162" y="1513" type="line"/>
    </contour>
  </outline>
</glyph>
<glyph name="E" format="1">
  <advance width="1341"/>
  <unicode hex="0045"/>
  <outline>
    <contour>
      <point x="162" y="0" type="line"/>
      <point x="1250" y="0" type="line"/>
      <point x="1250" y="320" type="line"/>
      <point x="575" y="320" type="line"/>
      <point x="575" y="621" type="line"/>
      <point x="1157" y="621" type="line"/>
      <point x="1157" y="911" type="line"/>
      <point x="575" y="911" type="line"/>
      <point x="575" y="1192" type="line"/>
      <point x="1238" y="1192" type="line"/>
      <point x="1238" y="1513" type="line"/>
      <point x="162" y="1513" type="line"/>
    </contour>
  </outline>
</glyph>
<glyph name="F" format="1">
  <advance width="1163"/>
  <unicode hex="0046"/>
  <outline>
    <contour>
      <point x="162" y="0" type="line"/>
      <point x="575" y="0" type="line"/>
      <point x="575" y="598" type="line"/>
      <point x="1074" y="598" type="line"/>
      <point x="1074" y="886" type="line"/>
      <point x="575" y="886" type="line"/>
      <point x="575" y="1192" type="line"/>
      <point x="1121" y="1192" type="line"/>
      <point x="1121" y="1513" type="line"/>
      <point x="162" y="1513" type="line"/>
    </contour>
  </outline>
</glyph>
<glyph name="G" format="1">
  <advance width="1550"/>
  <unicode hex="0047"/>
  <outline>
    <contour>
      <point x="800" y="-32" type="curve" smooth="yes"/>
      <point x="1040" y="-32"/>
      <point x="1211" y="-14"/>
      <point x="1323" y="57" type="curve"/>
      <point x="1362" y="0" type="line"/>
      <point x="1423" y="0" type="line"/>
      <point x="1423" y="783" type="line"/>
      <point x="799" y="783" type="line"/>
      <point x="799" y="530" type="line"/>
      <point x="1095" y="530" type="line"/>
      <point x="1095" y="453" type="line" smooth="yes"/>
      <point x="1095" y="317"/>
      <point x="985" y="296"/>
      <point x="800" y="296" type="curve" smooth="yes"/>
      <point x="619" y="296"/>
      <point x="544" y="316"/>
      <point x="544" y="453" type="curve" smooth="yes"/>
      <point x="544" y="1047" type="line" smooth="yes"/>
      <point x="544" y="1183"/>
      <point x="619" y="1209"/>
      <point x="798" y="1209" type="curve" smooth="yes"/>
      <point x="979" y="1209"/>
      <point x="1024" y="1174"/>
      <point x="1024" y="1047" type="curve" smooth="yes"/>
      <point x="1024" y="958" type="line"/>
      <point x="1432" y="958" type="line"/>
      <point x="1432" y="1011" type="line" smooth="yes"/>
      <point x="1432" y="1300"/>
      <point x="1363" y="1537"/>
      <point x="798" y="1537" type="curve" smooth="yes"/>
      <point x="217" y="1537"/>
      <point x="132" y="1302"/>
      <point x="132" y="1013" type="curve" smooth="yes"/>
      <point x="132" y="481" type="line" smooth="yes"/>
      <point x="132" y="202"/>
      <point x="222" y="-32"/>
    </contour>
  </outline>
</glyph>
<glyph name="H" format="1">
  <advance width="1742"/>
  <unicode hex="0048"/>
  <outline>
    <contour>
      <point x="162" y="0" type="line"/>
      <point x="575" y="0" type="line"/>
      <point x="575" y="562" type="line"/>
      <point x="1169" y="562" type="line"/>
      <point x="1169" y="0" type="line"/>
      <point x="1580" y="0" type="line"/>
      <point x="1580" y="1513" type="line"/>
      <point x="1169" y="1513" type="line"/>
      <point x="1169" y="897" type="line"/>
      <point x="575" y="897" type="line"/>
      <point x="575" y="1513" type="line"/>
      <point x="162" y="1513" type="line"/>
    </contour>
  </outline>
</glyph>
<glyph name="J" format="1">
  <advance width="1253"/>
  <unicode hex="004A"/>
  <outline>
    <contour>
      <point x="511" y="-51" type="curve" smooth="yes"/>
      <point x="848" y="-51"/>
      <point x="1113" y="116"/>
      <point x="1113" y="411" type="curve" smooth="yes"/>
      <point x="1113" y="1513" type="line"/>
      <point x="341" y="1513" type="line"/>
      <point x="341" y="1212" type="line"/>
      <point x="701" y="1212" type="line"/>
      <point x="701" y="460" type="line" smooth="yes"/>
      <point x="701" y="404"/>
      <point x="656" y="295"/>
      <point x="475" y="295" type="curve" smooth="yes"/>
      <point x="423" y="295"/>
      <point x="341" y="300"/>
      <point x="149" y="375" type="curve"/>
      <point x="60" y="64" type="line"/>
      <point x="268" y="-30"/>
      <point x="396" y="-51"/>
    </contour>
  </outline>
</glyph>
<glyph name="K" format="1">
  <advance width="1515"/>
  <unicode hex="004B"/>
  <outline>
    <contour>
      <point x="162" y="0" type="line"/>
      <point x="575" y="0" type="line"/>
      <point x="575" y="629" type="line"/>
      <point x="618" y="665" type="line"/>
      <point x="1051" y="0" type="line"/>
      <point x="1520" y="0" type="line"/>
      <point x="993" y="812" type="line"/>
      <point x="1473" y="1513" type="line"/>
      <point x="1013" y="1513" type="line"/>
      <point x="1134" y="1654"/>
      <point x="456" y="741"/>
      <point x="575" y="885" type="curve"/>
      <point x="575" y="1513" type="line"/>
      <point x="162" y="1513" type="line"/>
    </contour>
  </outline>
</glyph>
<glyph name="M" format="1">
  <advance width="2033"/>
  <unicode hex="004D"/>
  <outline>
    <contour>
      <point x="162" y="0" type="line"/>
      <point x="558" y="0" type="line"/>
      <point x="558" y="1051" type="line"/>
      <point x="886" y="394" type="line"/>
      <point x="1145" y="394" type="line"/>
      <point x="1474" y="1055" type="line"/>
      <point x="1474" y="0" type="line"/>
      <point x="1871" y="0" type="line"/>
      <point x="1868" y="1513" type="line"/>
      <point x="1297" y="1513" type="line"/>
      <point x="1015" y="909" type="line"/>
      <point x="713" y="1513" type="line"/>
      <point x="162" y="1513" type="line"/>
    </contour>
  </outline>
</glyph>
<glyph name="N" format="1">
  <advance width="1688"/>
  <unicode hex="004E"/>
  <outline>
    <contour>
      <point x="148" y="0" type="line"/>
      <point x="529" y="0" type="line"/>
      <point x="529" y="859" type="line"/>
      <point x="1252" y="0" type="line"/>
      <point x="1534" y="0" type="line"/>
      <point x="1534" y="1513" type="line"/>
      <point x="1158" y="1513" type="line"/>
      <point x="1158" y="678" type="line"/>
      <point x="461" y="1513" type="line"/>
      <point x="148" y="1513" type="line"/>
    </contour>
  </outline>
</glyph>
<glyph name="O" format="1">
  <advance width="1684"/>
  <unicode hex="004F"/>
  <outline>
    <contour>
      <point x="855" y="296" type="curve" smooth="yes"/>
      <point x="674" y="296"/>
      <point x="544" y="345"/>
      <point x="544" y="483" type="curve" smooth="yes"/>
      <point x="544" y="1026" type="line" smooth="yes"/>
      <point x="544" y="1162"/>
      <point x="676" y="1209"/>
      <point x="855" y="1209" type="curve" smooth="yes"/>
      <point x="1036" y="1209"/>
      <point x="1139" y="1152"/>
      <point x="1139" y="1026" type="curve" smooth="yes"/>
      <point x="1139" y="483" type="line" smooth="yes"/>
      <point x="1139" y="346"/>
      <point x="1039" y="296"/>
    </contour>
    <contour>
      <point x="855" y="-32" type="curve" smooth="yes"/>
      <point x="1415" y="-32"/>
      <point x="1551" y="255"/>
      <point x="1551" y="537" type="curve" smooth="yes"/>
      <point x="1551" y="965" type="line" smooth="yes"/>
      <point x="1551" y="1254"/>
      <point x="1418" y="1537"/>
      <point x="855" y="1537" type="curve" smooth="yes"/>
      <point x="264" y="1537"/>
      <point x="132" y="1272"/>
      <point x="132" y="983" type="curve" smooth="yes"/>
      <point x="132" y="518" type="line" smooth="yes"/>
      <point x="132" y="239"/>
      <point x="267" y="-32"/>
    </contour>
  </outline>
</glyph>
<glyph name="P" format="1">
  <advance width="1340"/>
  <unicode hex="0050"/>
  <outline>
    <contour>
      <point x="162" y="0" type="line"/>
      <point x="574" y="0" type="line"/>
      <point x="574" y="485" type="line"/>
      <point x="674" y="485" type="line" smooth="yes"/>
      <point x="1229" y="485"/>
      <point x="1309" y="685"/>
      <point x="1309" y="1022" type="curve" smooth="yes"/>
      <point x="1309" y="1357"/>
      <point x="1163" y="1513"/>
      <point x="736" y="1513" type="curve" smooth="yes"/>
      <point x="162" y="1513" type="line"/>
    </contour>
    <contour>
      <point x="574" y="780" type="line"/>
      <point x="574" y="1230" type="line"/>
      <point x="789" y="1230" type="line" smooth="yes"/>
      <point x="880" y="1230"/>
      <point x="938" y="1178"/>
      <point x="938" y="1006" type="curve" smooth="yes"/>
      <point x="938" y="794"/>
      <point x="894" y="780"/>
      <point x="773" y="780" type="curve" smooth="yes"/>
    </contour>
  </outline>
</glyph>
<glyph name="R" format="1">
  <advance width="1501"/>
  <unicode hex="0052"/>
  <outline>
    <contour>
      <point x="162" y="0" type="line"/>
      <point x="574" y="0" type="line"/>
      <point x="574" y="581" type="line"/>
      <point x="574" y="581"/>
      <point x="771" y="581"/>
      <point x="765" y="581" type="curve"/>
      <point x="997" y="0" type="line"/>
      <point x="1428" y="0" type="line"/>
      <point x="1168" y="632" type="line"/>
      <point x="1420" y="731"/>
      <point x="1405" y="947"/>
      <point x="1405" y="1068" type="curve" smooth="yes"/>
      <point x="1405" y="1263"/>
      <point x="1377" y="1513"/>
      <point x="804" y="1513" type="curve" smooth="yes"/>
      <point x="162" y="1513" type="line"/>
    </contour>
    <contour>
      <point x="574" y="865" type="line"/>
      <point x="574" y="1230" type="line"/>
      <point x="879" y="1230" type="line" smooth="yes"/>
      <point x="985" y="1230"/>
      <point x="1022" y="1158"/>
      <point x="1022" y="1060" type="curve" smooth="yes"/>
      <point x="1022" y="949"/>
      <point x="1001" y="865"/>
      <point x="876" y="865" type="curve" smooth="yes"/>
    </contour>
  </outline>
</glyph>
<glyph name="S" format="1">
  <advance width="1283"/>
  <unicode hex="0053"/>
  <outline>
    <contour>
      <point x="734" y="-25" type="curve" smooth="yes"/>
      <point x="1103" y="-22"/>
      <point x="1209" y="215"/>
      <point x="1206" y="469" type="curve" smooth="yes"/>
      <point x="1202" y="664"/>
      <point x="1124" y="777"/>
      <point x="931" y="860" type="curve" smooth="yes"/>
      <point x="789" y="917" type="line" smooth="yes"/>
      <point x="641" y="979"/>
      <point x="540" y="1004"/>
      <point x="536" y="1102" type="curve" smooth="yes"/>
      <point x="530" y="1166"/>
      <point x="589" y="1207"/>
      <point x="670" y="1199" type="curve" smooth="yes"/>
      <point x="751" y="1191"/>
      <point x="914" y="1171"/>
      <point x="1046" y="1120" type="curve"/>
      <point x="1179" y="1417" type="line"/>
      <point x="992" y="1519"/>
      <point x="807" y="1540"/>
      <point x="675" y="1540" type="curve" smooth="yes"/>
      <point x="341" y="1540"/>
      <point x="122" y="1366"/>
      <point x="127" y="1064" type="curve" smooth="yes"/>
      <point x="131" y="957"/>
      <point x="154" y="765"/>
      <point x="431" y="649" type="curve" smooth="yes"/>
      <point x="595" y="586" type="line" smooth="yes"/>
      <point x="786" y="508"/>
      <point x="829" y="486"/>
      <point x="836" y="441" type="curve" smooth="yes"/>
      <point x="844" y="388"/>
      <point x="830" y="317"/>
      <point x="741" y="317" type="curve" smooth="yes"/>
      <point x="617" y="317"/>
      <point x="381" y="370"/>
      <point x="265" y="410" type="curve"/>
      <point x="126" y="113" type="line"/>
      <point x="266" y="28"/>
      <point x="535" y="-27"/>
    </contour>
  </outline>
</glyph>
<glyph name="U" format="1">
  <advance width="1572"/>
  <unicode hex="0055"/>
  <outline>
    <contour>
      <point x="794" y="-24" type="curve" smooth="yes"/>
      <point x="1347" y="-24"/>
      <point x="1441" y="191"/>
      <point x="1441" y="488" type="curve" smooth="yes"/>
      <point x="1441" y="1513" type="line"/>
      <point x="1028" y="1513" type="line"/>
      <point x="1028" y="460" type="line" smooth="yes"/>
      <point x="1028" y="356"/>
      <point x="1008" y="293"/>
      <point x="794" y="293" type="curve" smooth="yes"/>
      <point x="584" y="293"/>
      <point x="544" y="350"/>
      <point x="544" y="460" type="curve" smooth="yes"/>
      <point x="544" y="1513" type="line"/>
      <point x="131" y="1513" type="line"/>
      <point x="131" y="462" type="line" smooth="yes"/>
      <point x="131" y="167"/>
      <point x="251" y="-24"/>
    </contour>
  </outline>
</glyph>
<glyph name="V" format="1">
  <advance width="1303"/>
  <unicode hex="0056"/>
  <outline>
    <contour>
      <point x="472" y="0" type="line"/>
      <point x="818" y="0" type="line"/>
      <point x="1330" y="1513" type="line"/>
      <point x="891" y="1513" type="line"/>
      <point x="656" y="559" type="line"/>
      <point x="389" y="1513" type="line"/>
      <point x="-31" y="1513" type="line"/>
    </contour>
  </outline>
</glyph>
<glyph name="W" format="1">
  <advance width="1964"/>
  <unicode hex="0057"/>
  <outline>
    <contour>
      <point x="376" y="0" type="line"/>
      <point x="751" y="0" type="line"/>
      <point x="957" y="838" type="line"/>
      <point x="1212" y="0" type="line"/>
      <point x="1571" y="0" type="line"/>
      <point x="1944" y="1513" type="line"/>
      <point x="1535" y="1513" type="line"/>
      <point x="1361" y="611" type="line"/>
      <point x="1106" y="1513" type="line"/>
      <point x="811" y="1513" type="line"/>
      <point x="623" y="587" type="line"/>
      <point x="433" y="1513" type="line"/>
      <point x="21" y="1513" type="line"/>
    </contour>
  </outline>
</glyph>
<glyph name="Y" format="1">
  <advance width="1315"/>
  <unicode hex="0059"/>
  <outline>
    <contour>
      <point x="448" y="0" type="line"/>
      <point x="860" y="0" type="line"/>
      <point x="860" y="471" type="line"/>
      <point x="1351" y="1513" type="line"/>
      <point x="933" y="1513" type="line"/>
      <point x="658" y="903" type="line"/>
      <point x="398" y="1513" type="line"/>
      <point x="-41" y="1513" type="line"/>
      <point x="448" y="471" type="line"/>
    </contour>
  </outline>
</glyph>
<glyph name="Z" format="1">
  <advance width="1140"/>
  <unicode hex="005A"/>
  <outline>
    <contour>
      <point x="78" y="0" type="line"/>
      <point x="1083" y="0" type="line"/>
      <point x="1083" y="229" type="line"/>
      <point x="520" y="229" type="line"/>
      <point x="1072" y="1303" type="line"/>
      <point x="1072" y="1513" type="line"/>
      <point x="102" y="1513" type="line"/>
      <point x="102" y="1284" type="line"/>
      <point x="626" y="1284" type="line"/>
      <point x="78" y="210" type="line"/>
    </contour>
  </outline>
</glyph>
<glyph name="bracketleft" format="1">
  <advance width="546"/>
  <unicode hex="005B"/>
  <outline>
    <contour>
      <point x="78" y="-41" type="line"/>
      <point x="548" y="-41" type="line"/>
      <point x="548" y="89" type="line"/>
      <point x="320" y="89" type="line"/>
      <point x="320" y="1474" type="line"/>
      <point x="548" y="1474" type="line"/>
      <point x="548" y="1604" type="line"/>
      <point x="78" y="1604" type="line"/>
    </contour>
  </outline>
</glyph>
<glyph name="bracketright" format="1">
  <advance width="494"/>
  <unicode hex="005D"/>
  <outline>
    <contour>
      <point x="0" y="-41" type="line"/>
      <point x="437" y="-41" type="line"/>
      <point x="437" y="1557" type="line"/>
      <point x="0" y="1557" type="line"/>
      <point x="0" y="1456" type="line"/>
      <point x="225" y="1456" type="line"/>
      <point x="225" y="61" type="line"/>
      <point x="0" y="61" type="line"/>
    </contour>
  </outline>
</glyph>
<glyph name="asciicircum" format="1">
  <advance width="881"/>
  <unicode hex="005E"/>
  <outline>
    <contour>
      <point x="1" y="818" type="line"/>
      <point x="310" y="818" type="line"/>
      <point x="432" y="1061" type="line"/>
      <point x="556" y="818" type="line"/>
      <point x="865" y="818" type="line"/>
      <point x="692" y="1324" type="line"/>
      <point x="179" y="1324" type="line"/>
    </contour>
  </outline>
</glyph>
<glyph name="grave" format="1">
  <advance width="483"/>
  <unicode hex="0060"/>
  <outline>
    <contour>
      <point x="249" y="1152" type="line"/>
      <point x="453" y="1152" type="line"/>
      <point x="354" y="1530" type="line"/>
      <point x="35" y="1530" type="line"/>
    </contour>
  </outline>
</glyph>
<glyph name="a" format="1">
  <advance width="1272"/>
  <unicode hex="0061"/>
  <outline>
    <contour>
      <point x="426" y="-26" type="curve" smooth="yes"/>
      <point x="535" y="-26"/>
      <point x="685" y="49"/>
      <point x="757" y="130" type="curve"/>
      <point x="804" y="59"/>
      <point x="837" y="-8"/>
      <point x="996" y="-8" type="curve"/>
      <point x="1184" y="-8" type="line"/>
      <point x="1205" y="256" type="line"/>
      <point x="1125" y="256"/>
      <point x="1103" y="299"/>
      <point x="1103" y="380" type="curve" smooth="yes"/>
      <point x="1103" y="755" type="line" smooth="yes"/>
      <point x="1103" y="981"/>
      <point x="978" y="1117"/>
      <point x="608" y="1117" type="curve" smooth="yes"/>
      <point x="293" y="1117"/>
      <point x="167" y="950"/>
      <point x="167" y="744" type="curve" smooth="yes"/>
      <point x="167" y="721" type="line"/>
      <point x="512" y="721" type="line"/>
      <point x="512" y="766" type="line" smooth="yes"/>
      <point x="512" y="848"/>
      <point x="558" y="871"/>
      <point x="602" y="871" type="curve" smooth="yes"/>
      <point x="653" y="871"/>
      <point x="729" y="879"/>
      <point x="729" y="790" type="curve" smooth="yes"/>
      <point x="729" y="619"/>
      <point x="655" y="646"/>
      <point x="409" y="566" type="curve" smooth="yes"/>
      <point x="151" y="476"/>
      <point x="134" y="417"/>
      <point x="144" y="251" type="curve" smooth="yes"/>
      <point x="157" y="54"/>
      <point x="291" y="-26"/>
    </contour>
    <contour>
      <point x="593" y="210" type="curve" smooth="yes"/>
      <point x="517" y="210"/>
      <point x="499" y="261"/>
      <point x="503" y="320" type="curve" smooth="yes"/>
      <point x="506" y="331"/>
      <point x="518" y="395"/>
      <point x="542" y="405" type="curve" smooth="yes"/>
      <point x="579" y="417"/>
      <point x="691" y="441"/>
      <point x="731" y="472" type="curve"/>
      <point x="731" y="242" type="line"/>
      <point x="657" y="194"/>
      <point x="601" y="210"/>
    </contour>
  </outline>
</glyph>
<glyph name="b" format="1">
  <advance width="1300"/>
  <unicode hex="0062"/>
  <outline>
    <contour>
      <point x="725" y="-30" type="curve" smooth="yes"/>
      <point x="968" y="-30"/>
      <point x="1147" y="96"/>
      <point x="1147" y="301" type="curve" smooth="yes"/>
      <point x="1147" y="774" type="line" smooth="yes"/>
      <point x="1147" y="928"/>
      <point x="1073" y="1115"/>
      <point x="734" y="1115" type="curve" smooth="yes"/>
      <point x="655" y="1115"/>
      <point x="597" y="1102"/>
      <point x="535" y="1074" type="curve"/>
      <point x="535" y="1527" type="line"/>
      <point x="159" y="1527" type="line"/>
      <point x="159" y="0" type="line"/>
      <point x="408" y="0" type="line"/>
      <point x="437" y="57" type="line"/>
      <point x="523" y="-2"/>
      <point x="618" y="-30"/>
    </contour>
    <contour>
      <point x="659" y="219" type="curve" smooth="yes"/>
      <point x="605" y="219"/>
      <point x="560" y="220"/>
      <point x="535" y="249" type="curve"/>
      <point x="535" y="839" type="line"/>
      <point x="498" y="822"/>
      <point x="525" y="868"/>
      <point x="636" y="868" type="curve" smooth="yes"/>
      <point x="736" y="868"/>
      <point x="773" y="851"/>
      <point x="773" y="767" type="curve" smooth="yes"/>
      <point x="773" y="312" type="line" smooth="yes"/>
      <point x="773" y="230"/>
      <point x="738" y="219"/>
    </contour>
  </outline>
</glyph>
<glyph name="c" format="1">
  <advance width="1227"/>
  <unicode hex="0063"/>
  <outline>
    <contour>
      <point x="623" y="-26" type="curve" smooth="yes"/>
      <point x="1032" y="-26"/>
      <point x="1094" y="104"/>
      <point x="1080" y="464" type="curve"/>
      <point x="720" y="464" type="line"/>
      <point x="728" y="237"/>
      <point x="729" y="221"/>
      <point x="634" y="221" type="curve" smooth="yes"/>
      <point x="539" y="221"/>
      <point x="528" y="238"/>
      <point x="528" y="314" type="curve" smooth="yes"/>
      <point x="528" y="769" type="line" smooth="yes"/>
      <point x="528" y="851"/>
      <point x="554" y="871"/>
      <point x="634" y="871" type="curve" smooth="yes"/>
      <point x="739" y="871"/>
      <point x="726" y="847"/>
      <point x="723" y="664" type="curve"/>
      <point x="1081" y="664" type="line"/>
      <point x="1080" y="1024"/>
      <point x="952" y="1117"/>
      <point x="622" y="1117" type="curve" smooth="yes"/>
      <point x="319" y="1117"/>
      <point x="153" y="999"/>
      <point x="153" y="766" type="curve" smooth="yes"/>
      <point x="153" y="306" type="line" smooth="yes"/>
      <point x="153" y="131"/>
      <point x="196" y="-26"/>
    </contour>
  </outline>
</glyph>
<glyph name="d" format="1">
  <advance width="1301"/>
  <unicode hex="0064"/>
  <outline>
    <contour>
      <point x="591" y="-30" type="curve" smooth="yes"/>
      <point x="702" y="-30"/>
      <point x="782" y="6"/>
      <point x="861" y="59" type="curve"/>
      <point x="887" y="0" type="line"/>
      <point x="1142" y="0" type="line"/>
      <point x="1142" y="1527" type="line"/>
      <point x="766" y="1527" type="line"/>
      <point x="766" y="1081" type="line"/>
      <point x="706" y="1102"/>
      <point x="655" y="1115"/>
      <point x="600" y="1115" type="curve" smooth="yes"/>
      <point x="281" y="1115"/>
      <point x="153" y="956"/>
      <point x="153" y="775" type="curve" smooth="yes"/>
      <point x="153" y="314" type="line" smooth="yes"/>
      <point x="153" y="84"/>
      <point x="317" y="-30"/>
    </contour>
    <contour>
      <point x="648" y="218" type="curve" smooth="yes"/>
      <point x="550" y="218"/>
      <point x="528" y="238"/>
      <point x="528" y="322" type="curve" smooth="yes"/>
      <point x="528" y="764" type="line" smooth="yes"/>
      <point x="528" y="846"/>
      <point x="554" y="868"/>
      <point x="648" y="868" type="curve" smooth="yes"/>
      <point x="710" y="868"/>
      <point x="754" y="846"/>
      <point x="766" y="842" type="curve"/>
      <point x="766" y="237" type="line"/>
      <point x="724" y="214"/>
      <point x="684" y="218"/>
    </contour>
  </outline>
</glyph>
<glyph name="e" format="1">
  <advance width="1295"/>
  <unicode hex="0065"/>
  <outline>
    <contour>
      <point x="648" y="-26" type="curve" smooth="yes"/>
      <point x="938" y="-26"/>
      <point x="1154" y="12"/>
      <point x="1143" y="389" type="curve"/>
      <point x="787" y="389" type="line"/>
      <point x="794" y="237"/>
      <point x="729" y="221"/>
      <point x="659" y="221" type="curve" smooth="yes"/>
      <point x="586" y="221"/>
      <point x="528" y="224"/>
      <point x="528" y="313" type="curve" smooth="yes"/>
      <point x="528" y="520" type="line"/>
      <point x="1142" y="520" type="line"/>
      <point x="1142" y="730" type="line" smooth="yes"/>
      <point x="1142" y="964"/>
      <point x="1032" y="1117"/>
      <point x="645" y="1117" type="curve" smooth="yes"/>
      <point x="382" y="1117"/>
      <point x="153" y="1010"/>
      <point x="153" y="769" type="curve" smooth="yes"/>
      <point x="153" y="306" type="line" smooth="yes"/>
      <point x="153" y="-25"/>
      <point x="449" y="-26"/>
    </contour>
    <contour>
      <point x="528" y="681" type="line"/>
      <point x="528" y="760" type="line" smooth="yes"/>
      <point x="528" y="853"/>
      <point x="600" y="871"/>
      <point x="659" y="871" type="curve" smooth="yes"/>
      <point x="726" y="871"/>
      <point x="793" y="858"/>
      <point x="793" y="750" type="curve" smooth="yes"/>
      <point x="793" y="681" type="line"/>
    </contour>
  </outline>
</glyph>
<glyph name="f" format="1">
  <advance width="795"/>
  <unicode hex="0066"/>
  <outline>
    <contour>
      <point x="212" y="0" type="line"/>
      <point x="587" y="0" type="line"/>
      <point x="587" y="868" type="line"/>
      <point x="750" y="868" type="line"/>
      <point x="750" y="1091" type="line"/>
      <point x="587" y="1091" type="line"/>
      <point x="587" y="1151" type="line" smooth="yes"/>
      <point x="587" y="1219"/>
      <point x="588" y="1272"/>
      <point x="709" y="1272" type="curve" smooth="yes"/>
      <point x="769" y="1272" type="line"/>
      <point x="758" y="1527" type="line"/>
      <point x="621" y="1527" type="line" smooth="yes"/>
      <point x="320" y="1527"/>
      <point x="212" y="1333"/>
      <point x="212" y="1007" type="curve" smooth="yes"/>
      <point x="212" y="1091" type="line"/>
      <point x="112" y="1091" type="line"/>
      <point x="112" y="868" type="line"/>
      <point x="212" y="868" type="line"/>
    </contour>
  </outline>
</glyph>
<glyph name="g" format="1">
  <advance width="1332"/>
  <unicode hex="0067"/>
  <outline>
    <contour>
      <point x="631" y="-439" type="curve" smooth="yes"/>
      <point x="1056" y="-439"/>
      <point x="1169" y="-219"/>
      <point x="1169" y="-31" type="curve"/>
      <point x="1169" y="1092" type="line"/>
      <point x="946" y="1092" type="line"/>
      <point x="895" y="1023" type="line"/>
      <point x="784" y="1085"/>
      <point x="697" y="1119"/>
      <point x="566" y="1119" type="curve" smooth="yes"/>
      <point x="230" y="1119"/>
      <point x="153" y="927"/>
      <point x="153" y="779" type="curve" smooth="yes"/>
      <point x="153" y="352" type="line" smooth="yes"/>
      <point x="153" y="151"/>
      <point x="329" y="22"/>
      <point x="575" y="22" type="curve" smooth="yes"/>
      <point x="668" y="22"/>
      <point x="723" y="34"/>
      <point x="792" y="50" type="curve"/>
      <point x="792" y="-5" type="line" smooth="yes"/>
      <point x="792" y="-129"/>
      <point x="712" y="-172"/>
      <point x="570" y="-172" type="curve" smooth="yes"/>
      <point x="531" y="-172"/>
      <point x="456" y="-172"/>
      <point x="299" y="-140" type="curve"/>
      <point x="232" y="-379" type="line"/>
      <point x="292" y="-410"/>
      <point x="511" y="-439"/>
    </contour>
    <contour>
      <point x="656" y="253" type="curve" smooth="yes"/>
      <point x="571" y="253"/>
      <point x="528" y="284"/>
      <point x="528" y="368" type="curve" smooth="yes"/>
      <point x="528" y="768" type="line" smooth="yes"/>
      <point x="528" y="850"/>
      <point x="560" y="872"/>
      <point x="654" y="872" type="curve" smooth="yes"/>
      <point x="723" y="872"/>
      <point x="792" y="841"/>
      <point x="792" y="873" type="curve"/>
      <point x="792" y="261" type="line"/>
      <point x="747" y="231"/>
      <point x="688" y="253"/>
    </contour>
  </outline>
</glyph>
<glyph name="h" format="1">
  <advance width="1373"/>
  <unicode hex="0068"/>
  <outline>
    <contour>
      <point x="179" y="0" type="line"/>
      <point x="554" y="0" type="line"/>
      <point x="554" y="761" type="line" smooth="yes"/>
      <point x="554" y="867"/>
      <point x="705" y="868"/>
      <point x="700" y="868" type="curve" smooth="yes"/>
      <point x="728" y="868"/>
      <point x="832" y="872"/>
      <point x="832" y="750" type="curve" smooth="yes"/>
      <point x="832" y="0" type="line"/>
      <point x="1208" y="0" type="line"/>
      <point x="1208" y="820" type="line" smooth="yes"/>
      <point x="1208" y="1017"/>
      <point x="1040" y="1115"/>
      <point x="900" y="1115" type="curve" smooth="yes"/>
      <point x="756" y="1115"/>
      <point x="579" y="1038"/>
      <point x="554" y="959" type="curve"/>
      <point x="554" y="1527" type="line"/>
      <point x="179" y="1527" type="line"/>
    </contour>
  </outline>
</glyph>
<glyph name="i" format="1">
  <advance width="702"/>
  <unicode hex="0069"/>
  <outline>
    <contour>
      <point x="162" y="0" type="line"/>
      <point x="538" y="0" type="line"/>
      <point x="538" y="1091" type="line"/>
      <point x="162" y="1091" type="line"/>
    </contour>
    <contour>
      <point x="168" y="1199" type="line"/>
      <point x="534" y="1199" type="line"/>
      <point x="534" y="1495" type="line"/>
      <point x="168" y="1495" type="line"/>
    </contour>
  </outline>
</glyph>
<glyph name="j" format="1">
  <advance width="711"/>
  <unicode hex="006A"/>
  <outline>
    <contour>
      <point x="-67" y="-355" type="line"/>
      <point x="73" y="-355" type="line" smooth="yes"/>
      <point x="431" y="-355"/>
      <point x="531" y="-118"/>
      <point x="531" y="57" type="curve" smooth="yes"/>
      <point x="531" y="1090" type="line"/>
      <point x="154" y="1090" type="line"/>
      <point x="154" y="84" type="line" smooth="yes"/>
      <point x="154" y="40"/>
      <point x="124" y="-103"/>
      <point x="-25" y="-103" type="curve" smooth="yes"/>
      <point x="-67" y="-103" type="line"/>
    </contour>
    <contour>
      <point x="157" y="1199" type="line"/>
      <point x="523" y="1199" type="line"/>
      <point x="523" y="1495" type="line"/>
      <point x="157" y="1495" type="line"/>
    </contour>
  </outline>
</glyph>
<glyph name="k" format="1">
  <advance width="1290"/>
  <unicode hex="006B"/>
  <outline>
    <contour>
      <point x="152" y="0" type="line"/>
      <point x="527" y="0" type="line"/>
      <point x="527" y="421" type="line"/>
      <point x="561" y="464" type="line"/>
      <point x="808" y="0" type="line"/>
      <point x="1265" y="0" type="line"/>
      <point x="895" y="631" type="line"/>
      <point x="1270" y="1091" type="line"/>
      <point x="806" y="1091" type="line"/>
      <point x="896" y="1188"/>
      <point x="436" y="615"/>
      <point x="527" y="712" type="curve"/>
      <point x="527" y="1527" type="line"/>
      <point x="152" y="1527" type="line"/>
    </contour>
  </outline>
</glyph>
<glyph name="l" format="1">
  <advance width="772"/>
  <unicode hex="006C"/>
  <outline>
    <contour>
      <point x="513" y="-8" type="curve" smooth="yes"/>
      <point x="655" y="-8" type="line"/>
      <point x="674" y="256" type="line"/>
      <point x="663" y="256"/>
      <point x="683" y="256"/>
      <point x="674" y="256" type="curve" smooth="yes"/>
      <point x="556" y="262"/>
      <point x="547" y="316"/>
      <point x="547" y="366" type="curve" smooth="yes"/>
      <point x="547" y="1527" type="line"/>
      <point x="172" y="1527" type="line"/>
      <point x="172" y="356" type="line" smooth="yes"/>
      <point x="172" y="133"/>
      <point x="265" y="-8"/>
    </contour>
  </outline>
</glyph>
<glyph name="m" format="1">
  <advance width="2060"/>
  <unicode hex="006D"/>
  <outline>
    <contour>
      <point x="179" y="0" type="line"/>
      <point x="554" y="0" type="line"/>
      <point x="554" y="763" type="line" smooth="yes"/>
      <point x="554" y="869"/>
      <point x="718" y="871"/>
      <point x="713" y="871" type="curve" smooth="yes"/>
      <point x="741" y="871"/>
      <point x="847" y="874"/>
      <point x="847" y="752" type="curve" smooth="yes"/>
      <point x="847" y="0" type="line"/>
      <point x="1224" y="0" type="line"/>
      <point x="1224" y="786" type="line"/>
      <point x="1242" y="874"/>
      <point x="1392" y="871"/>
      <point x="1383" y="871" type="curve" smooth="yes"/>
      <point x="1412" y="871"/>
      <point x="1519" y="874"/>
      <point x="1519" y="752" type="curve" smooth="yes"/>
      <point x="1519" y="0" type="line"/>
      <point x="1895" y="0" type="line"/>
      <point x="1895" y="822" type="line" smooth="yes"/>
      <point x="1895" y="1019"/>
      <point x="1694" y="1117"/>
      <point x="1554" y="1117" type="curve" smooth="yes"/>
      <point x="1411" y="1117"/>
      <point x="1236" y="1035"/>
      <point x="1183" y="959" type="curve"/>
      <point x="1185" y="961" type="line"/>
      <point x="1125" y="1064"/>
      <point x="1003" y="1117"/>
      <point x="897" y="1117" type="curve" smooth="yes"/>
      <point x="754" y="1117"/>
      <point x="579" y="1032"/>
      <point x="554" y="937" type="curve"/>
      <point x="554" y="1091" type="line"/>
      <point x="179" y="1091" type="line"/>
    </contour>
  </outline>
</glyph>
<glyph name="n" format="1">
  <advance width="1365"/>
  <unicode hex="006E"/>
  <outline>
    <contour>
      <point x="172" y="0" type="line"/>
      <point x="547" y="0" type="line"/>
      <point x="547" y="763" type="line" smooth="yes"/>
      <point x="547" y="869"/>
      <point x="691" y="871"/>
      <point x="686" y="871" type="curve" smooth="yes"/>
      <point x="715" y="871"/>
      <point x="834" y="874"/>
      <point x="834" y="752" type="curve" smooth="yes"/>
      <point x="834" y="0" type="line"/>
      <point x="1209" y="0" type="line"/>
      <point x="1209" y="822" type="line" smooth="yes"/>
      <point x="1209" y="1019"/>
      <point x="1022" y="1117"/>
      <point x="882" y="1117" type="curve" smooth="yes"/>
      <point x="738" y="1117"/>
      <point x="572" y="1032"/>
      <point x="547" y="937" type="curve"/>
      <point x="547" y="1091" type="line"/>
      <point x="172" y="1091" type="line"/>
    </contour>
  </outline>
</glyph>
<glyph name="o" format="1">
  <advance width="1310"/>
  <unicode hex="006F"/>
  <outline>
    <contour>
      <point x="655" y="221" type="curve" smooth="yes"/>
      <point x="560" y="221"/>
      <point x="528" y="247"/>
      <point x="528" y="329" type="curve" smooth="yes"/>
      <point x="528" y="760" type="line" smooth="yes"/>
      <point x="528" y="842"/>
      <point x="571" y="871"/>
      <point x="655" y="871" type="curve" smooth="yes"/>
      <point x="751" y="871"/>
      <point x="781" y="845"/>
      <point x="781" y="760" type="curve" smooth="yes"/>
      <point x="781" y="329" type="line" smooth="yes"/>
      <point x="781" y="246"/>
      <point x="739" y="221"/>
    </contour>
    <contour>
      <point x="655" y="-26" type="curve" smooth="yes"/>
      <point x="1038" y="-26"/>
      <point x="1157" y="102"/>
      <point x="1157" y="337" type="curve" smooth="yes"/>
      <point x="1157" y="752" type="line" smooth="yes"/>
      <point x="1157" y="998"/>
      <point x="950" y="1117"/>
      <point x="655" y="1117" type="curve" smooth="yes"/>
      <point x="360" y="1117"/>
      <point x="153" y="998"/>
      <point x="153" y="752" type="curve" smooth="yes"/>
      <point x="153" y="337" type="line" smooth="yes"/>
      <point x="153" y="101"/>
      <point x="290" y="-26"/>
    </contour>
  </outline>
</glyph>
<glyph name="p" format="1">
  <advance width="1320"/>
  <unicode hex="0070"/>
  <outline>
    <contour>
      <point x="179" y="-413" type="line"/>
      <point x="555" y="-413" type="line"/>
      <point x="555" y="-3" type="line"/>
      <point x="609" y="-23"/>
      <point x="662" y="-26"/>
      <point x="705" y="-26" type="curve" smooth="yes"/>
      <point x="1041" y="-26"/>
      <point x="1167" y="156"/>
      <point x="1167" y="304" type="curve" smooth="yes"/>
      <point x="1167" y="777" type="line" smooth="yes"/>
      <point x="1167" y="987"/>
      <point x="994" y="1119"/>
      <point x="748" y="1119" type="curve" smooth="yes"/>
      <point x="635" y="1119"/>
      <point x="546" y="1087"/>
      <point x="456" y="1032" type="curve"/>
      <point x="423" y="1091" type="line"/>
      <point x="179" y="1091" type="line"/>
    </contour>
    <contour>
      <point x="670" y="223" type="curve" smooth="yes"/>
      <point x="571" y="223"/>
      <point x="530" y="269"/>
      <point x="555" y="254" type="curve"/>
      <point x="555" y="862" type="line"/>
      <point x="604" y="898"/>
      <point x="649" y="873"/>
      <point x="682" y="873" type="curve" smooth="yes"/>
      <point x="766" y="873"/>
      <point x="792" y="854"/>
      <point x="792" y="770" type="curve" smooth="yes"/>
      <point x="792" y="315" type="line" smooth="yes"/>
      <point x="792" y="232"/>
      <point x="765" y="223"/>
    </contour>
  </outline>
</glyph>
<glyph name="q" format="1">
  <advance width="1320"/>
  <unicode hex="0071"/>
  <outline>
    <contour>
      <point x="765" y="-413" type="line"/>
      <point x="1141" y="-413" type="line"/>
      <point x="1141" y="1091" type="line"/>
      <point x="918" y="1091" type="line"/>
      <point x="875" y="1041" type="line"/>
      <point x="776" y="1092"/>
      <point x="702" y="1119"/>
      <point x="586" y="1119" type="curve" smooth="yes"/>
      <point x="342" y="1119"/>
      <point x="153" y="982"/>
      <point x="153" y="777" type="curve" smooth="yes"/>
      <point x="153" y="320" type="line" smooth="yes"/>
      <point x="153" y="167"/>
      <point x="218" y="-24"/>
      <point x="556" y="-24" type="curve" smooth="yes"/>
      <point x="649" y="-24"/>
      <point x="700" y="-6"/>
      <point x="765" y="16" type="curve"/>
    </contour>
    <contour>
      <point x="654" y="222" type="curve" smooth="yes"/>
      <point x="554" y="222"/>
      <point x="528" y="252"/>
      <point x="528" y="336" type="curve" smooth="yes"/>
      <point x="528" y="766" type="line" smooth="yes"/>
      <point x="528" y="849"/>
      <point x="573" y="872"/>
      <point x="652" y="872" type="curve" smooth="yes"/>
      <point x="665" y="872"/>
      <point x="709" y="889"/>
      <point x="765" y="874" type="curve"/>
      <point x="765" y="242" type="line"/>
      <point x="770" y="254"/>
      <point x="737" y="222"/>
    </contour>
  </outline>
</glyph>
<glyph name="r" format="1">
  <advance width="1014"/>
  <unicode hex="0072"/>
  <outline>
    <contour>
      <point x="177" y="0" type="line"/>
      <point x="553" y="0" type="line"/>
      <point x="553" y="702" type="line"/>
      <point x="583" y="790"/>
      <point x="820" y="794"/>
      <point x="939" y="804" type="curve"/>
      <point x="945" y="1109" type="line"/>
      <point x="855" y="1123"/>
      <point x="604" y="1053"/>
      <point x="553" y="968" type="curve"/>
      <point x="553" y="1091" type="line"/>
      <point x="177" y="1091" type="line"/>
    </contour>
  </outline>
</glyph>
<glyph name="s" format="1">
  <advance width="1083"/>
  <unicode hex="0073"/>
  <outline>
    <contour>
      <point x="585" y="-28" type="curve" smooth="yes"/>
      <point x="833" y="-28"/>
      <point x="993" y="125"/>
      <point x="993" y="324" type="curve" smooth="yes"/>
      <point x="993" y="495"/>
      <point x="925" y="559"/>
      <point x="746" y="638" type="curve" smooth="yes"/>
      <point x="561" y="726" type="line" smooth="yes"/>
      <point x="535" y="738"/>
      <point x="496" y="763"/>
      <point x="496" y="806" type="curve" smooth="yes"/>
      <point x="496" y="853"/>
      <point x="520" y="880"/>
      <point x="580" y="880" type="curve" smooth="yes"/>
      <point x="683" y="880"/>
      <point x="815" y="800"/>
      <point x="863" y="749" type="curve"/>
      <point x="982" y="934" type="line"/>
      <point x="924" y="1011"/>
      <point x="761" y="1115"/>
      <point x="557" y="1115" type="curve" smooth="yes"/>
      <point x="382" y="1115"/>
      <point x="139" y="1052"/>
      <point x="139" y="764" type="curve" smooth="yes"/>
      <point x="139" y="634"/>
      <point x="190" y="544"/>
      <point x="354" y="473" type="curve" smooth="yes"/>
      <point x="560" y="374" type="line" smooth="yes"/>
      <point x="615" y="350"/>
      <point x="639" y="308"/>
      <point x="639" y="285" type="curve" smooth="yes"/>
      <point x="639" y="261"/>
      <point x="608" y="220"/>
      <point x="583" y="220" type="curve" smooth="yes"/>
      <point x="527" y="220"/>
      <point x="414" y="248"/>
      <point x="256" y="364" type="curve"/>
      <point x="117" y="152" type="line"/>
      <point x="272" y="20"/>
      <point x="432" y="-28"/>
    </contour>
  </outline>
</glyph>
<glyph name="t" format="1">
  <advance width="913"/>
  <unicode hex="0074"/>
  <outline>
    <contour>
      <point x="697" y="-8" type="curve" smooth="yes"/>
      <point x="795" y="-8" type="line"/>
      <point x="815" y="256" type="line"/>
      <point x="794" y="256" type="line" smooth="yes"/>
      <point x="586" y="256"/>
      <point x="562" y="299"/>
      <point x="562" y="424" type="curve" smooth="yes"/>
      <point x="562" y="867" type="line"/>
      <point x="806" y="867" type="line"/>
      <point x="806" y="1090" type="line"/>
      <point x="562" y="1090" type="line"/>
      <point x="562" y="1457" type="line"/>
      <point x="226" y="1457" type="line"/>
      <point x="197" y="1090" type="line"/>
      <point x="88" y="1090" type="line"/>
      <point x="88" y="867" type="line"/>
      <point x="186" y="867" type="line"/>
      <point x="186" y="395" type="line" smooth="yes"/>
      <point x="186" y="68"/>
      <point x="306" y="-8"/>
    </contour>
  </outline>
</glyph>
<glyph name="u" format="1">
  <advance width="1371"/>
  <unicode hex="0075"/>
  <outline>
    <contour>
      <point x="473" y="-26" type="curve" smooth="yes"/>
      <point x="616" y="-26"/>
      <point x="795" y="55"/>
      <point x="824" y="138" type="curve"/>
      <point x="813" y="0" type="line"/>
      <point x="1199" y="0" type="line"/>
      <point x="1199" y="1091" type="line"/>
      <point x="824" y="1091" type="line"/>
      <point x="824" y="332" type="line" smooth="yes"/>
      <point x="824" y="219"/>
      <point x="670" y="220"/>
      <point x="675" y="220" type="curve" smooth="yes"/>
      <point x="646" y="220"/>
      <point x="531" y="212"/>
      <point x="531" y="334" type="curve" smooth="yes"/>
      <point x="531" y="1091" type="line"/>
      <point x="156" y="1091" type="line"/>
      <point x="156" y="269" type="line" smooth="yes"/>
      <point x="156" y="71"/>
      <point x="333" y="-26"/>
    </contour>
  </outline>
</glyph>
<glyph name="v" format="1">
  <advance width="1163"/>
  <unicode hex="0076"/>
  <outline>
    <contour>
      <point x="357" y="0" type="line"/>
      <point x="780" y="0" type="line"/>
      <point x="1174" y="1091" type="line"/>
      <point x="817" y="1091" type="line"/>
      <point x="582" y="263" type="line"/>
      <point x="359" y="1091" type="line"/>
      <point x="-11" y="1091" type="line"/>
    </contour>
  </outline>
</glyph>
<glyph name="w" format="1">
  <advance width="1792"/>
  <unicode hex="0077"/>
  <outline>
    <contour>
      <point x="364" y="0" type="line"/>
      <point x="693" y="0" type="line"/>
      <point x="910" y="584" type="line"/>
      <point x="1110" y="0" type="line"/>
      <point x="1461" y="0" type="line"/>
      <point x="1716" y="1091" type="line"/>
      <point x="1368" y="1091" type="line"/>
      <point x="1234" y="427" type="line"/>
      <point x="1016" y="1091" type="line"/>
      <point x="788" y="1091" type="line"/>
      <point x="588" y="447" type="line"/>
      <point x="429" y="1091" type="line"/>
      <point x="76" y="1091" type="line"/>
    </contour>
  </outline>
</glyph>
<glyph name="x" format="1">
  <advance width="1212"/>
  <unicode hex="0078"/>
  <outline>
    <contour>
      <point x="51" y="0" type="line"/>
      <point x="445" y="0" type="line"/>
      <point x="621" y="270" type="line"/>
      <point x="811" y="0" type="line"/>
      <point x="1162" y="0" type="line"/>
      <point x="800" y="537" type="line"/>
      <point x="1165" y="1091" type="line"/>
      <point x="797" y="1091" type="line"/>
      <point x="610" y="816" type="line"/>
      <point x="425" y="1091" type="line"/>
      <point x="46" y="1091" type="line"/>
      <point x="426" y="548" type="line"/>
    </contour>
  </outline>
</glyph>
<glyph name="y" format="1">
  <advance width="1168"/>
  <unicode hex="0079"/>
  <outline>
    <contour>
      <point x="169" y="-466" type="line"/>
      <point x="302" y="-466" type="line" smooth="yes"/>
      <point x="664" y="-466"/>
      <point x="663" y="-394"/>
      <point x="838" y="137" type="curve" smooth="yes"/>
      <point x="1145" y="1091" type="line"/>
      <point x="793" y="1091" type="line"/>
      <point x="614" y="402" type="line"/>
      <point x="381" y="1091" type="line"/>
      <point x="32" y="1091" type="line"/>
      <point x="452" y="-8" type="line"/>
      <point x="425" y="-105"/>
      <point x="437" y="-226"/>
      <point x="299" y="-226" type="curve" smooth="yes"/>
      <point x="169" y="-226" type="line"/>
    </contour>
  </outline>
</glyph>
<glyph name="z" format="1">
  <advance width="987"/>
  <unicode hex="007A"/>
  <outline>
    <contour>
      <point x="91" y="0" type="line"/>
      <point x="898" y="0" type="line"/>
      <point x="898" y="244" type="line"/>
      <point x="500" y="244" type="line"/>
      <point x="876" y="868" type="line"/>
      <point x="876" y="1091" type="line"/>
      <point x="110" y="1091" type="line"/>
      <point x="110" y="848" type="line"/>
      <point x="445" y="848" type="line"/>
      <point x="91" y="227" type="line"/>
    </contour>
  </outline>
</glyph>
<glyph name="exclamdown" format="1">
  <advance width="414"/>
  <unicode hex="00A1"/>
  <outline>
    <contour>
      <point x="44" y="-436" type="line"/>
      <point x="370" y="-436" type="line"/>
      <point x="269" y="688" type="line"/>
      <point x="162" y="688" type="line"/>
    </contour>
    <contour>
      <point x="69" y="784" type="line"/>
      <point x="369" y="784" type="line"/>
      <point x="369" y="1078" type="line"/>
      <point x="69" y="1078" type="line"/>
    </contour>
  </outline>
</glyph>
<glyph name="cent" format="1">
  <advance width="756"/>
  <unicode hex="00A2"/>
  <outline>
    <contour>
      <point x="312" y="-225" type="line"/>
      <point x="444" y="-225" type="line"/>
      <point x="444" y="49" type="line"/>
      <point x="565" y="66"/>
      <point x="725" y="177"/>
      <point x="725" y="341" type="curve" smooth="yes"/>
      <point x="725" y="473" type="line"/>
      <point x="399" y="473" type="line"/>
      <point x="400" y="373"/>
      <point x="403" y="396"/>
      <point x="403" y="379" type="curve" smooth="yes"/>
      <point x="403" y="348"/>
      <point x="427" y="310"/>
      <point x="371" y="310" type="curve" smooth="yes"/>
      <point x="317" y="310"/>
      <point x="358" y="369"/>
      <point x="358" y="347" type="curve" smooth="yes"/>
      <point x="358" y="746" type="line" smooth="yes"/>
      <point x="358" y="729"/>
      <point x="328" y="773"/>
      <point x="371" y="773" type="curve" smooth="yes"/>
      <point x="438" y="773"/>
      <point x="402" y="716"/>
      <point x="400" y="671" type="curve" smooth="yes"/>
      <point x="399" y="630" type="line"/>
      <point x="725" y="630" type="line"/>
      <point x="725" y="659" type="line" smooth="yes"/>
      <point x="725" y="874"/>
      <point x="661" y="1024"/>
      <point x="444" y="1038" type="curve"/>
      <point x="444" y="1310" type="line"/>
      <point x="312" y="1310" type="line"/>
      <point x="312" y="1038" type="line"/>
      <point x="91" y="1029"/>
      <point x="30" y="881"/>
      <point x="30" y="661" type="curve" smooth="yes"/>
      <point x="30" y="335" type="line" smooth="yes"/>
      <point x="30" y="169"/>
      <point x="183" y="61"/>
      <point x="312" y="49" type="curve"/>
    </contour>
  </outline>
</glyph>
<glyph name="dieresis" format="1">
  <advance width="935"/>
  <unicode hex="00A8"/>
  <outline>
    <contour>
      <point x="85" y="1219" type="line"/>
      <point x="418" y="1219" type="line"/>
      <point x="418" y="1513" type="line"/>
      <point x="85" y="1513" type="line"/>
    </contour>
    <contour>
      <point x="602" y="1219" type="line"/>
      <point x="936" y="1219" type="line"/>
      <point x="936" y="1513" type="line"/>
      <point x="602" y="1513" type="line"/>
    </contour>
  </outline>
</glyph>
<glyph name="degree" format="1">
  <advance width="1154"/>
  <unicode hex="00B0"/>
  <outline>
    <contour>
      <point x="582" y="1121" type="curve" smooth="yes"/>
      <point x="407" y="1121"/>
      <point x="316" y="1167"/>
      <point x="316" y="1252" type="curve" smooth="yes"/>
      <point x="316" y="1339"/>
      <point x="407" y="1381"/>
      <point x="582" y="1381" type="curve" smooth="yes"/>
      <point x="760" y="1381"/>
      <point x="850" y="1338"/>
      <point x="850" y="1251" type="curve" smooth="yes"/>
      <point x="850" y="1165"/>
      <point x="759" y="1121"/>
    </contour>
    <contour>
      <point x="583" y="912" type="curve" smooth="yes"/>
      <point x="908" y="912"/>
      <point x="1055" y="1049"/>
      <point x="1055" y="1252" type="curve" smooth="yes"/>
      <point x="1055" y="1454"/>
      <point x="906" y="1591"/>
      <point x="582" y="1591" type="curve" smooth="yes"/>
      <point x="229" y="1591"/>
      <point x="89" y="1473"/>
      <point x="89" y="1252" type="curve" smooth="yes"/>
      <point x="89" y="1033"/>
      <point x="227" y="912"/>
    </contour>
  </outline>
</glyph>
<glyph name="plusminus" format="1">
  <advance width="579"/>
  <unicode hex="00B1"/>
  <outline>
    <contour>
      <point x="173" y="316" type="line"/>
      <point x="392" y="316" type="line"/>
      <point x="392" y="413" type="line"/>
      <point x="503" y="413" type="line"/>
      <point x="503" y="636" type="line"/>
      <point x="392" y="636" type="line"/>
      <point x="392" y="741" type="line"/>
      <point x="173" y="741" type="line"/>
      <point x="173" y="636" type="line"/>
      <point x="63" y="636" type="line"/>
      <point x="63" y="413" type="line"/>
      <point x="173" y="413" type="line"/>
    </contour>
    <contour>
      <point x="63" y="0" type="line"/>
      <point x="503" y="0" type="line"/>
      <point x="503" y="220" type="line"/>
      <point x="63" y="220" type="line"/>
    </contour>
  </outline>
</glyph>
<glyph name="acute" format="1">
  <advance width="480"/>
  <unicode hex="00B4"/>
  <outline>
    <contour>
      <point x="-54" y="1159" type="line"/>
      <point x="147" y="1159" type="line"/>
      <point x="573" y="1537" type="line"/>
      <point x="255" y="1537" type="line"/>
    </contour>
  </outline>
</glyph>
<glyph name="paragraph" format="1">
  <advance width="1189"/>
  <unicode hex="00B6"/>
  <outline>
    <contour>
      <point x="356" y="0" type="line"/>
      <point x="572" y="0" type="line"/>
      <point x="572" y="1329" type="line"/>
      <point x="836" y="1329" type="line"/>
      <point x="836" y="0" type="line"/>
      <point x="1051" y="0" type="line"/>
      <point x="1051" y="1512" type="line"/>
      <point x="346" y="1512" type="line" smooth="yes"/>
      <point x="152" y="1512"/>
      <point x="-37" y="1410"/>
      <point x="-37" y="1194" type="curve" smooth="yes"/>
      <point x="-37" y="947"/>
      <point x="137" y="842"/>
      <point x="356" y="844" type="curve"/>
    </contour>
  </outline>
</glyph>
<glyph name="Agrave" format="1">
  <advance width="1068"/>
  <unicode hex="00C0"/>
  <outline>
    <contour>
      <point x="45" y="0" type="line"/>
      <point x="466" y="0" type="line"/>
      <point x="516" y="339" type="line"/>
      <point x="729" y="339" type="line"/>
      <point x="779" y="0" type="line"/>
      <point x="1205" y="0" type="line"/>
      <point x="980" y="1513" type="line"/>
      <point x="272" y="1513" type="line"/>
    </contour>
    <contour>
      <point x="539" y="1541" type="line"/>
      <point x="743" y="1541" type="line"/>
      <point x="643" y="1918" type="line"/>
      <point x="325" y="1918" type="line"/>
    </contour>
    <contour>
      <point x="542" y="550" type="line"/>
      <point x="626" y="1331" type="line"/>
      <point x="698" y="550" type="line"/>
    </contour>
  </outline>
</glyph>
<glyph name="Acircumflex" format="1">
  <advance width="1068"/>
  <unicode hex="00C2"/>
  <outline>
    <contour>
      <point x="45" y="0" type="line"/>
      <point x="466" y="0" type="line"/>
      <point x="516" y="339" type="line"/>
      <point x="729" y="339" type="line"/>
      <point x="779" y="0" type="line"/>
      <point x="1205" y="0" type="line"/>
      <point x="980" y="1513" type="line"/>
      <point x="272" y="1513" type="line"/>
    </contour>
    <contour>
      <point x="142" y="1541" type="line"/>
      <point x="431" y="1541" type="line"/>
      <point x="528" y="1704" type="line"/>
      <point x="632" y="1541" type="line"/>
      <point x="928" y="1541" type="line"/>
      <point x="777" y="1914" type="line"/>
      <point x="280" y="1914" type="line"/>
    </contour>
    <contour>
      <point x="542" y="550" type="line"/>
      <point x="626" y="1331" type="line"/>
      <point x="698" y="550" type="line"/>
    </contour>
  </outline>
</glyph>
<glyph name="Aring" format="1">
  <advance width="1068"/>
  <unicode hex="00C5"/>
  <outline>
    <contour>
      <point x="45" y="0" type="line"/>
      <point x="466" y="0" type="line"/>
      <point x="516" y="339" type="line"/>
      <point x="729" y="339" type="line"/>
      <point x="779" y="0" type="line"/>
      <point x="1205" y="0" type="line"/>
      <point x="980" y="1513" type="line"/>
      <point x="272" y="1513" type="line"/>
    </contour>
    <contour>
      <point x="534" y="1787" type="curve" smooth="yes"/>
      <point x="488" y="1787"/>
      <point x="490" y="1862"/>
      <point x="490" y="1878" type="curve" smooth="yes"/>
      <point x="490" y="1893"/>
      <point x="489" y="1966"/>
      <point x="534" y="1966" type="curve" smooth="yes"/>
      <point x="577" y="1966"/>
      <point x="575" y="1888"/>
      <point x="575" y="1876" type="curve" smooth="yes"/>
      <point x="575" y="1863"/>
      <point x="578" y="1787"/>
    </contour>
    <contour>
      <point x="534" y="1669" type="curve" smooth="yes"/>
      <point x="664" y="1669"/>
      <point x="751" y="1754"/>
      <point x="751" y="1877" type="curve" smooth="yes"/>
      <point x="751" y="1999"/>
      <point x="662" y="2085"/>
      <point x="534" y="2085" type="curve" smooth="yes"/>
      <point x="405" y="2085"/>
      <point x="316" y="2000"/>
      <point x="316" y="1877" type="curve" smooth="yes"/>
      <point x="316" y="1754"/>
      <point x="405" y="1669"/>
    </contour>
    <contour>
      <point x="542" y="550" type="line"/>
      <point x="626" y="1331" type="line"/>
      <point x="698" y="550" type="line"/>
    </contour>
  </outline>
</glyph>
<glyph name="Eacute" format="1">
  <advance width="597"/>
  <unicode hex="00C9"/>
  <outline>
    <contour>
      <point x="125" y="0" type="line"/>
      <point x="868" y="0" type="line"/>
      <point x="868" y="320" type="line"/>
      <point x="538" y="320" type="line"/>
      <point x="538" y="621" type="line"/>
      <point x="763" y="621" type="line"/>
      <point x="763" y="911" type="line"/>
      <point x="538" y="911" type="line"/>
      <point x="538" y="1192" type="line"/>
      <point x="873" y="1192" type="line"/>
      <point x="873" y="1513" type="line"/>
      <point x="125" y="1513" type="line"/>
    </contour>
    <contour>
      <point x="-64" y="1541" type="line"/>
      <point x="137" y="1541" type="line"/>
      <point x="563" y="1918" type="line"/>
      <point x="245" y="1918" type="line"/>
    </contour>
  </outline>
</glyph>
<glyph name="Ecircumflex" format="1">
  <advance width="597"/>
  <unicode hex="00CA"/>
  <outline>
    <contour>
      <point x="125" y="0" type="line"/>
      <point x="868" y="0" type="line"/>
      <point x="868" y="320" type="line"/>
      <point x="538" y="320" type="line"/>
      <point x="538" y="621" type="line"/>
      <point x="763" y="621" type="line"/>
      <point x="763" y="911" type="line"/>
      <point x="538" y="911" type="line"/>
      <point x="538" y="1192" type="line"/>
      <point x="873" y="1192" type="line"/>
      <point x="873" y="1513" type="line"/>
      <point x="125" y="1513" type="line"/>
    </contour>
    <contour>
      <point x="-113" y="1541" type="line"/>
      <point x="177" y="1541" type="line"/>
      <point x="273" y="1704" type="line"/>
      <point x="377" y="1541" type="line"/>
      <point x="673" y="1541" type="line"/>
      <point x="522" y="1914" type="line"/>
      <point x="26" y="1914" type="line"/>
    </contour>
  </outline>
</glyph>
<glyph name="Edieresis" format="1">
  <advance width="597"/>
  <unicode hex="00CB"/>
  <outline>
    <contour>
      <point x="125" y="0" type="line"/>
      <point x="868" y="0" type="line"/>
      <point x="868" y="320" type="line"/>
      <point x="538" y="320" type="line"/>
      <point x="538" y="621" type="line"/>
      <point x="763" y="621" type="line"/>
      <point x="763" y="911" type="line"/>
      <point x="538" y="911" type="line"/>
      <point x="538" y="1192" type="line"/>
      <point x="873" y="1192" type="line"/>
      <point x="873" y="1513" type="line"/>
      <point x="125" y="1513" type="line"/>
    </contour>
    <contour>
      <point x="-146" y="1666" type="line"/>
      <point x="187" y="1666" type="line"/>
      <point x="187" y="1961" type="line"/>
      <point x="-146" y="1961" type="line"/>
    </contour>
    <contour>
      <point x="371" y="1666" type="line"/>
      <point x="706" y="1666" type="line"/>
      <point x="706" y="1961" type="line"/>
      <point x="371" y="1961" type="line"/>
    </contour>
  </outline>
</glyph>
<glyph name="multiply" format="1">
  <advance width="731"/>
  <unicode hex="00D7"/>
  <outline>
    <contour>
      <point x="145" y="288" type="line"/>
      <point x="358" y="407" type="line"/>
      <point x="574" y="288" type="line"/>
      <point x="704" y="410" type="line"/>
      <point x="622" y="490"/>
      <point x="666" y="450"/>
      <point x="585" y="533" type="curve"/>
      <point x="704" y="656" type="line"/>
      <point x="574" y="778" type="line"/>
      <point x="358" y="660" type="line"/>
      <point x="145" y="778" type="line"/>
      <point x="14" y="656" type="line"/>
      <point x="133" y="533" type="line"/>
      <point x="14" y="410" type="line"/>
    </contour>
  </outline>
</glyph>
<glyph name="Yacute" format="1">
  <advance width="1143"/>
  <unicode hex="00DD"/>
  <outline>
    <contour>
      <point x="216" y="0" type="line"/>
      <point x="612" y="0" type="line"/>
      <point x="612" y="451" type="line"/>
      <point x="1177" y="1513" type="line"/>
      <point x="770" y="1513" type="line"/>
      <point x="631" y="1184"/>
      <point x="698" y="1213"/>
      <point x="558" y="884" type="curve"/>
      <point x="390" y="1513" type="line"/>
      <point x="-36" y="1513" type="line"/>
      <point x="216" y="451" type="line"/>
    </contour>
    <contour>
      <point x="226" y="1541" type="line"/>
      <point x="427" y="1541" type="line"/>
      <point x="853" y="1918" type="line"/>
      <point x="534" y="1918" type="line"/>
    </contour>
  </outline>
</glyph>
<glyph name="eacute" format="1">
  <advance width="1153"/>
  <unicode hex="00E9"/>
  <outline>
    <contour>
      <point x="596" y="-26" type="curve" smooth="yes"/>
      <point x="865" y="-26"/>
      <point x="1113" y="5"/>
      <point x="1113" y="331" type="curve" smooth="yes"/>
      <point x="1113" y="426" type="line"/>
      <point x="745" y="426" type="line"/>
      <point x="745" y="339" type="line" smooth="yes"/>
      <point x="745" y="244"/>
      <point x="690" y="221"/>
      <point x="607" y="221" type="curve" smooth="yes"/>
      <point x="542" y="221"/>
      <point x="482" y="228"/>
      <point x="482" y="322" type="curve" smooth="yes"/>
      <point x="482" y="520" type="line"/>
      <point x="1113" y="520" type="line"/>
      <point x="1113" y="730" type="line" smooth="yes"/>
      <point x="1113" y="964"/>
      <point x="979" y="1117"/>
      <point x="593" y="1117" type="curve" smooth="yes"/>
      <point x="329" y="1117"/>
      <point x="107" y="1010"/>
      <point x="107" y="769" type="curve" smooth="yes"/>
      <point x="107" y="315" type="line" smooth="yes"/>
      <point x="107" y="-11"/>
      <point x="396" y="-26"/>
    </contour>
    <contour>
      <point x="482" y="681" type="line"/>
      <point x="482" y="760" type="line" smooth="yes"/>
      <point x="482" y="853"/>
      <point x="547" y="871"/>
      <point x="607" y="871" type="curve" smooth="yes"/>
      <point x="673" y="871"/>
      <point x="745" y="858"/>
      <point x="745" y="750" type="curve" smooth="yes"/>
      <point x="745" y="681" type="line"/>
    </contour>
    <contour>
      <point x="415" y="1182" type="line"/>
      <point x="617" y="1182" type="line"/>
      <point x="1043" y="1560" type="line"/>
      <point x="724" y="1560" type="line"/>
    </contour>
  </outline>
</glyph>
<glyph name="oacute" format="1">
  <advance width="848"/>
  <unicode hex="00F3"/>
  <outline>
    <contour>
      <point x="511" y="221" type="curve" smooth="yes"/>
      <point x="438" y="221"/>
      <point x="467" y="279"/>
      <point x="467" y="264" type="curve" smooth="yes"/>
      <point x="467" y="838" type="line" smooth="yes"/>
      <point x="467" y="822"/>
      <point x="446" y="871"/>
      <point x="511" y="871" type="curve" smooth="yes"/>
      <point x="578" y="871"/>
      <point x="561" y="828"/>
      <point x="561" y="838" type="curve" smooth="yes"/>
      <point x="561" y="264" type="line" smooth="yes"/>
      <point x="561" y="275"/>
      <point x="595" y="221"/>
    </contour>
    <contour>
      <point x="509" y="-26" type="curve" smooth="yes"/>
      <point x="779" y="-26"/>
      <point x="936" y="82"/>
      <point x="936" y="262" type="curve" smooth="yes"/>
      <point x="936" y="736" type="line" smooth="yes"/>
      <point x="936" y="970"/>
      <point x="898" y="1117"/>
      <point x="505" y="1117" type="curve" smooth="yes"/>
      <point x="210" y="1117"/>
      <point x="92" y="968"/>
      <point x="92" y="736" type="curve" smooth="yes"/>
      <point x="92" y="262" type="line" smooth="yes"/>
      <point x="92" y="83"/>
      <point x="333" y="-26"/>
    </contour>
    <contour>
      <point x="138" y="1182" type="line"/>
      <point x="339" y="1182" type="line"/>
      <point x="765" y="1560" type="line"/>
      <point x="446" y="1560" type="line"/>
    </contour>
  </outline>
</glyph>
<glyph name="odieresis" format="1">
  <advance width="848"/>
  <unicode hex="00F6"/>
  <outline>
    <contour>
      <point x="511" y="221" type="curve" smooth="yes"/>
      <point x="438" y="221"/>
      <point x="467" y="279"/>
      <point x="467" y="264" type="curve" smooth="yes"/>
      <point x="467" y="838" type="line" smooth="yes"/>
      <point x="467" y="822"/>
      <point x="446" y="871"/>
      <point x="511" y="871" type="curve" smooth="yes"/>
      <point x="578" y="871"/>
      <point x="561" y="828"/>
      <point x="561" y="838" type="curve" smooth="yes"/>
      <point x="561" y="264" type="line" smooth="yes"/>
      <point x="561" y="275"/>
      <point x="595" y="221"/>
    </contour>
    <contour>
      <point x="509" y="-26" type="curve" smooth="yes"/>
      <point x="779" y="-26"/>
      <point x="936" y="82"/>
      <point x="936" y="262" type="curve" smooth="yes"/>
      <point x="936" y="736" type="line" smooth="yes"/>
      <point x="936" y="970"/>
      <point x="898" y="1117"/>
      <point x="505" y="1117" type="curve" smooth="yes"/>
      <point x="210" y="1117"/>
      <point x="92" y="968"/>
      <point x="92" y="736" type="curve" smooth="yes"/>
      <point x="92" y="262" type="line" smooth="yes"/>
      <point x="92" y="83"/>
      <point x="333" y="-26"/>
    </contour>
    <contour>
      <point x="14" y="1182" type="line"/>
      <point x="348" y="1182" type="line"/>
      <point x="348" y="1477" type="line"/>
      <point x="14" y="1477" type="line"/>
    </contour>
    <contour>
      <point x="531" y="1182" type="line"/>
      <point x="866" y="1182" type="line"/>
      <point x="866" y="1477" type="line"/>
      <point x="531" y="1477" type="line"/>
    </contour>
  </outline>
</glyph>
<glyph name="divide" format="1">
  <advance width="309"/>
  <unicode hex="00F7"/>
  <outline>
    <contour>
      <point x="25" y="251" type="line"/>
      <point x="272" y="251" type="line"/>
      <point x="272" y="504" type="line"/>
      <point x="25" y="504" type="line"/>
    </contour>
    <contour>
      <point x="-58" y="487" type="line"/>
      <point x="359" y="487" type="line"/>
      <point x="359" y="698" type="line"/>
      <point x="-58" y="698" type="line"/>
    </contour>
    <contour>
      <point x="25" y="709" type="line"/>
      <point x="272" y="709" type="line"/>
      <point x="272" y="962" type="line"/>
      <point x="25" y="962" type="line"/>
    </contour>
  </outline>
</glyph>
<glyph name="ugrave" format="1">
  <advance width="1111"/>
  <unicode hex="00F9"/>
  <outline>
    <contour>
      <point x="438" y="-26" type="curve" smooth="yes"/>
      <point x="581" y="-26"/>
      <point x="742" y="59"/>
      <point x="767" y="154" type="curve"/>
      <point x="767" y="0" type="line"/>
      <point x="1142" y="0" type="line"/>
      <point x="1142" y="1091" type="line"/>
      <point x="767" y="1091" type="line"/>
      <point x="767" y="332" type="line" smooth="yes"/>
      <point x="767" y="219"/>
      <point x="628" y="220"/>
      <point x="633" y="220" type="curve" smooth="yes"/>
      <point x="605" y="220"/>
      <point x="496" y="212"/>
      <point x="496" y="334" type="curve" smooth="yes"/>
      <point x="496" y="1091" type="line"/>
      <point x="121" y="1091" type="line"/>
      <point x="121" y="269" type="line" smooth="yes"/>
      <point x="121" y="71"/>
      <point x="298" y="-26"/>
    </contour>
    <contour>
      <point x="372" y="1127" type="line"/>
      <point x="576" y="1127" type="line"/>
      <point x="476" y="1505" type="line"/>
      <point x="158" y="1505" type="line"/>
    </contour>
  </outline>
</glyph>
<glyph name="uacute" format="1">
  <advance width="887"/>
  <unicode hex="00FA"/>
  <outline>
    <contour>
      <point x="317" y="-26" type="curve" smooth="yes"/>
      <point x="458" y="-26"/>
      <point x="523" y="29"/>
      <point x="579" y="62" type="curve"/>
      <point x="579" y="0" type="line"/>
      <point x="955" y="0" type="line"/>
      <point x="955" y="1091" type="line"/>
      <point x="579" y="1091" type="line"/>
      <point x="579" y="249" type="line" smooth="yes"/>
      <point x="579" y="240"/>
      <point x="513" y="220"/>
      <point x="518" y="220" type="curve" smooth="yes"/>
      <point x="513" y="220"/>
      <point x="490" y="231"/>
      <point x="490" y="293" type="curve" smooth="yes"/>
      <point x="490" y="1091" type="line"/>
      <point x="114" y="1091" type="line"/>
      <point x="114" y="192" type="line" smooth="yes"/>
      <point x="114" y="71"/>
      <point x="209" y="-26"/>
    </contour>
    <contour>
      <point x="151" y="1182" type="line"/>
      <point x="352" y="1182" type="line"/>
      <point x="778" y="1560" type="line"/>
      <point x="460" y="1560" type="line"/>
    </contour>
  </outline>
</glyph>
<glyph name="udieresis" format="1">
  <advance width="1111"/>
  <unicode hex="00FC"/>
  <outline>
    <contour>
      <point x="438" y="-26" type="curve" smooth="yes"/>
      <point x="581" y="-26"/>
      <point x="742" y="59"/>
      <point x="767" y="154" type="curve"/>
      <point x="767" y="0" type="line"/>
      <point x="1142" y="0" type="line"/>
      <point x="1142" y="1091" type="line"/>
      <point x="767" y="1091" type="line"/>
      <point x="767" y="332" type="line" smooth="yes"/>
      <point x="767" y="219"/>
      <point x="628" y="220"/>
      <point x="633" y="220" type="curve" smooth="yes"/>
      <point x="605" y="220"/>
      <point x="496" y="212"/>
      <point x="496" y="334" type="curve" smooth="yes"/>
      <point x="496" y="1091" type="line"/>
      <point x="121" y="1091" type="line"/>
      <point x="121" y="269" type="line" smooth="yes"/>
      <point x="121" y="71"/>
      <point x="298" y="-26"/>
    </contour>
    <contour>
      <point x="146" y="1253" type="line"/>
      <point x="479" y="1253" type="line"/>
      <point x="479" y="1547" type="line"/>
      <point x="146" y="1547" type="line"/>
    </contour>
    <contour>
      <point x="663" y="1253" type="line"/>
      <point x="997" y="1253" type="line"/>
      <point x="997" y="1547" type="line"/>
      <point x="663" y="1547" type="line"/>
    </contour>
  </outline>
</glyph>
<glyph name="Amacron" format="1">
  <advance width="1068"/>
  <unicode hex="0100"/>
  <outline>
    <contour>
      <point x="45" y="0" type="line"/>
      <point x="466" y="0" type="line"/>
      <point x="516" y="339" type="line"/>
      <point x="729" y="339" type="line"/>
      <point x="779" y="0" type="line"/>
      <point x="1205" y="0" type="line"/>
      <point x="980" y="1513" type="line"/>
      <point x="272" y="1513" type="line"/>
    </contour>
    <contour>
      <point x="320" y="1622" type="line"/>
      <point x="750" y="1622" type="line"/>
      <point x="750" y="1785" type="line"/>
      <point x="320" y="1785" type="line"/>
    </contour>
    <contour>
      <point x="542" y="550" type="line"/>
      <point x="626" y="1331" type="line"/>
      <point x="698" y="550" type="line"/>
    </contour>
  </outline>
</glyph>
<glyph name="Abreve" format="1">
  <advance width="1068"/>
  <unicode hex="0102"/>
  <outline>
    <contour>
      <point x="45" y="0" type="line"/>
      <point x="466" y="0" type="line"/>
      <point x="516" y="339" type="line"/>
      <point x="729" y="339" type="line"/>
      <point x="779" y="0" type="line"/>
      <point x="1205" y="0" type="line"/>
      <point x="980" y="1513" type="line"/>
      <point x="272" y="1513" type="line"/>
    </contour>
    <contour>
      <point x="535" y="1597" type="curve" smooth="yes"/>
      <point x="648" y="1597"/>
      <point x="734" y="1673"/>
      <point x="734" y="1799" type="curve"/>
      <point x="573" y="1799" type="line"/>
      <point x="573" y="1773"/>
      <point x="574" y="1699"/>
      <point x="535" y="1699" type="curve" smooth="yes"/>
      <point x="494" y="1699"/>
      <point x="497" y="1771"/>
      <point x="497" y="1799" type="curve"/>
      <point x="335" y="1799" type="line"/>
      <point x="335" y="1673"/>
      <point x="422" y="1597"/>
    </contour>
    <contour>
      <point x="542" y="550" type="line"/>
      <point x="626" y="1331" type="line"/>
      <point x="698" y="550" type="line"/>
    </contour>
  </outline>
</glyph>
<glyph name="ccircumflex" format="1">
  <advance width="791"/>
  <unicode hex="0109"/>
  <outline>
    <contour>
      <point x="507" y="-26" type="curve" smooth="yes"/>
      <point x="776" y="-26"/>
      <point x="913" y="97"/>
      <point x="913" y="277" type="curve" smooth="yes"/>
      <point x="913" y="483" type="line"/>
      <point x="547" y="483" type="line"/>
      <point x="547" y="274" type="line" smooth="yes"/>
      <point x="547" y="285"/>
      <point x="593" y="221"/>
      <point x="509" y="221" type="curve" smooth="yes"/>
      <point x="435" y="221"/>
      <point x="467" y="281"/>
      <point x="467" y="260" type="curve" smooth="yes"/>
      <point x="467" y="841" type="line" smooth="yes"/>
      <point x="467" y="825"/>
      <point x="447" y="871"/>
      <point x="509" y="871" type="curve" smooth="yes"/>
      <point x="576" y="871"/>
      <point x="547" y="822"/>
      <point x="547" y="832" type="curve" smooth="yes"/>
      <point x="547" y="627" type="line"/>
      <point x="913" y="627" type="line"/>
      <point x="913" y="725" type="line" smooth="yes"/>
      <point x="913" y="952"/>
      <point x="896" y="1117"/>
      <point x="503" y="1117" type="curve" smooth="yes"/>
      <point x="207" y="1117"/>
      <point x="92" y="966"/>
      <point x="92" y="734" type="curve" smooth="yes"/>
      <point x="92" y="263" type="line" smooth="yes"/>
      <point x="92" y="84"/>
      <point x="331" y="-26"/>
    </contour>
    <contour>
      <point x="-5" y="1127" type="line"/>
      <point x="285" y="1127" type="line"/>
      <point x="382" y="1290" type="line"/>
      <point x="486" y="1127" type="line"/>
      <point x="781" y="1127" type="line"/>
      <point x="631" y="1500" type="line"/>
      <point x="134" y="1500" type="line"/>
    </contour>
  </outline>
</glyph>
<glyph name="cdotaccent" format="1">
  <advance width="791"/>
  <unicode hex="010B"/>
  <outline>
    <contour>
      <point x="507" y="-26" type="curve" smooth="yes"/>
      <point x="776" y="-26"/>
      <point x="913" y="97"/>
      <point x="913" y="277" type="curve" smooth="yes"/>
      <point x="913" y="483" type="line"/>
      <point x="547" y="483" type="line"/>
      <point x="547" y="274" type="line" smooth="yes"/>
      <point x="547" y="285"/>
      <point x="593" y="221"/>
      <point x="509" y="221" type="curve" smooth="yes"/>
      <point x="435" y="221"/>
      <point x="467" y="281"/>
      <point x="467" y="260" type="curve" smooth="yes"/>
      <point x="467" y="841" type="line" smooth="yes"/>
      <point x="467" y="825"/>
      <point x="447" y="871"/>
      <point x="509" y="871" type="curve" smooth="yes"/>
      <point x="576" y="871"/>
      <point x="547" y="822"/>
      <point x="547" y="832" type="curve" smooth="yes"/>
      <point x="547" y="627" type="line"/>
      <point x="913" y="627" type="line"/>
      <point x="913" y="725" type="line" smooth="yes"/>
      <point x="913" y="952"/>
      <point x="896" y="1117"/>
      <point x="503" y="1117" type="curve" smooth="yes"/>
      <point x="207" y="1117"/>
      <point x="92" y="966"/>
      <point x="92" y="734" type="curve" smooth="yes"/>
      <point x="92" y="263" type="line" smooth="yes"/>
      <point x="92" y="84"/>
      <point x="331" y="-26"/>
    </contour>
    <contour>
      <point x="252" y="1260" type="line"/>
      <point x="526" y="1260" type="line"/>
      <point x="526" y="1537" type="line"/>
      <point x="252" y="1537" type="line"/>
    </contour>
  </outline>
</glyph>
<glyph name="Dcaron" format="1">
  <advance width="1035"/>
  <unicode hex="010E"/>
  <outline>
    <contour>
      <point x="257" y="1530" type="line"/>
      <point x="753" y="1530" type="line"/>
      <point x="898" y="1903" type="line"/>
      <point x="606" y="1903" type="line"/>
      <point x="504" y="1741" type="line"/>
      <point x="405" y="1903" type="line"/>
      <point x="111" y="1903" type="line"/>
    </contour>
    <contour>
      <point x="537" y="328" type="line"/>
      <point x="537" y="1185" type="line"/>
      <point x="671" y="1185" type="line" smooth="yes"/>
      <point x="878" y="1185"/>
      <point x="815" y="1126"/>
      <point x="815" y="1097" type="curve" smooth="yes"/>
      <point x="815" y="418" type="line" smooth="yes"/>
      <point x="815" y="378"/>
      <point x="882" y="328"/>
      <point x="671" y="328" type="curve" smooth="yes"/>
    </contour>
    <contour>
      <point x="125" y="0" type="line"/>
      <point x="735" y="0" type="line" smooth="yes"/>
      <point x="1208" y="0"/>
      <point x="1227" y="266"/>
      <point x="1227" y="539" type="curve" smooth="yes"/>
      <point x="1227" y="964" type="line" smooth="yes"/>
      <point x="1227" y="1269"/>
      <point x="1195" y="1513"/>
      <point x="736" y="1513" type="curve" smooth="yes"/>
      <point x="125" y="1513" type="line"/>
    </contour>
  </outline>
</glyph>
<glyph name="Emacron" format="1">
  <advance width="597"/>
  <unicode hex="0112"/>
  <outline>
    <contour>
      <point x="125" y="0" type="line"/>
      <point x="868" y="0" type="line"/>
      <point x="868" y="320" type="line"/>
      <point x="538" y="320" type="line"/>
      <point x="538" y="621" type="line"/>
      <point x="763" y="621" type="line"/>
      <point x="763" y="911" type="line"/>
      <point x="538" y="911" type="line"/>
      <point x="538" y="1192" type="line"/>
      <point x="873" y="1192" type="line"/>
      <point x="873" y="1513" type="line"/>
      <point x="125" y="1513" type="line"/>
    </contour>
    <contour>
      <point x="65" y="1622" type="line"/>
      <point x="495" y="1622" type="line"/>
      <point x="495" y="1785" type="line"/>
      <point x="65" y="1785" type="line"/>
    </contour>
  </outline>
</glyph>
<glyph name="Edotaccent" format="1">
  <advance width="597"/>
  <unicode hex="0116"/>
  <outline>
    <contour>
      <point x="125" y="0" type="line"/>
      <point x="868" y="0" type="line"/>
      <point x="868" y="320" type="line"/>
      <point x="538" y="320" type="line"/>
      <point x="538" y="621" type="line"/>
      <point x="763" y="621" type="line"/>
      <point x="763" y="911" type="line"/>
      <point x="538" y="911" type="line"/>
      <point x="538" y="1192" type="line"/>
      <point x="873" y="1192" type="line"/>
      <point x="873" y="1513" type="line"/>
      <point x="125" y="1513" type="line"/>
    </contour>
    <contour>
      <point x="144" y="1674" type="line"/>
      <point x="418" y="1674" type="line"/>
      <point x="418" y="1950" type="line"/>
      <point x="144" y="1950" type="line"/>
    </contour>
  </outline>
</glyph>
<glyph name="Ecaron" format="1">
  <advance width="597"/>
  <unicode hex="011A"/>
  <outline>
    <contour>
      <point x="125" y="0" type="line"/>
      <point x="868" y="0" type="line"/>
      <point x="868" y="320" type="line"/>
      <point x="538" y="320" type="line"/>
      <point x="538" y="621" type="line"/>
      <point x="763" y="621" type="line"/>
      <point x="763" y="911" type="line"/>
      <point x="538" y="911" type="line"/>
      <point x="538" y="1192" type="line"/>
      <point x="873" y="1192" type="line"/>
      <point x="873" y="1513" type="line"/>
      <point x="125" y="1513" type="line"/>
    </contour>
    <contour>
      <point x="33" y="1530" type="line"/>
      <point x="529" y="1530" type="line"/>
      <point x="674" y="1903" type="line"/>
      <point x="382" y="1903" type="line"/>
      <point x="280" y="1741" type="line"/>
      <point x="181" y="1903" type="line"/>
      <point x="-113" y="1903" type="line"/>
    </contour>
  </outline>
</glyph>
<glyph name="Gcircumflex" format="1">
  <advance width="1301"/>
  <unicode hex="011C"/>
  <outline>
    <contour>
      <point x="379" y="-32" type="curve" smooth="yes"/>
      <point x="498" y="-32"/>
      <point x="729" y="-13"/>
      <point x="851" y="44" type="curve"/>
      <point x="933" y="0" type="line"/>
      <point x="1288" y="0" type="line"/>
      <point x="1288" y="783" type="line"/>
      <point x="388" y="783" type="line"/>
      <point x="388" y="530" type="line"/>
      <point x="739" y="530" type="line"/>
      <point x="739" y="418" type="line" smooth="yes"/>
      <point x="739" y="406"/>
      <point x="732" y="246"/>
      <point x="543" y="246" type="curve" smooth="yes"/>
      <point x="353" y="246"/>
      <point x="364" y="392"/>
      <point x="364" y="406" type="curve" smooth="yes"/>
      <point x="364" y="1105" type="line" smooth="yes"/>
      <point x="364" y="1119"/>
      <point x="351" y="1261"/>
      <point x="541" y="1261" type="curve" smooth="yes"/>
      <point x="754" y="1261"/>
      <point x="741" y="1094"/>
      <point x="741" y="1064" type="curve" smooth="yes"/>
      <point x="741" y="952" type="line"/>
      <point x="1281" y="952" type="line"/>
      <point x="1281" y="1065" type="line" smooth="yes"/>
      <point x="1281" y="1342"/>
      <point x="1146" y="1537"/>
      <point x="541" y="1537" type="curve" smooth="yes"/>
      <point x="117" y="1537"/>
      <point x="10" y="1305"/>
      <point x="10" y="1010" type="curve" smooth="yes"/>
      <point x="10" y="455" type="line" smooth="yes"/>
      <point x="10" y="262"/>
      <point x="112" y="-32"/>
    </contour>
    <contour>
      <point x="262" y="1541" type="line"/>
      <point x="552" y="1541" type="line"/>
      <point x="648" y="1704" type="line"/>
      <point x="752" y="1541" type="line"/>
      <point x="1048" y="1541" type="line"/>
      <point x="897" y="1914" type="line"/>
      <point x="401" y="1914" type="line"/>
    </contour>
  </outline>
</glyph>
<glyph name="Gbreve" format="1">
  <advance width="1301"/>
  <unicode hex="011E"/>
  <outline>
    <contour>
      <point x="379" y="-32" type="curve" smooth="yes"/>
      <point x="498" y="-32"/>
      <point x="729" y="-13"/>
      <point x="851" y="44" type="curve"/>
      <point x="933" y="0" type="line"/>
      <point x="1288" y="0" type="line"/>
      <point x="1288" y="783" type="line"/>
      <point x="388" y="783" type="line"/>
      <point x="388" y="530" type="line"/>
      <point x="739" y="530" type="line"/>
      <point x="739" y="418" type="line" smooth="yes"/>
      <point x="739" y="406"/>
      <point x="732" y="246"/>
      <point x="543" y="246" type="curve" smooth="yes"/>
      <point x="353" y="246"/>
      <point x="364" y="392"/>
      <point x="364" y="406" type="curve" smooth="yes"/>
      <point x="364" y="1105" type="line" smooth="yes"/>
      <point x="364" y="1119"/>
      <point x="351" y="1261"/>
      <point x="541" y="1261" type="curve" smooth="yes"/>
      <point x="754" y="1261"/>
      <point x="741" y="1094"/>
      <point x="741" y="1064" type="curve" smooth="yes"/>
      <point x="741" y="952" type="line"/>
      <point x="1281" y="952" type="line"/>
      <point x="1281" y="1065" type="line" smooth="yes"/>
      <point x="1281" y="1342"/>
      <point x="1146" y="1537"/>
      <point x="541" y="1537" type="curve" smooth="yes"/>
      <point x="117" y="1537"/>
      <point x="10" y="1305"/>
      <point x="10" y="1010" type="curve" smooth="yes"/>
      <point x="10" y="455" type="line" smooth="yes"/>
      <point x="10" y="262"/>
      <point x="112" y="-32"/>
    </contour>
    <contour>
      <point x="655" y="1597" type="curve" smooth="yes"/>
      <point x="768" y="1597"/>
      <point x="855" y="1673"/>
      <point x="855" y="1799" type="curve"/>
      <point x="693" y="1799" type="line"/>
      <point x="693" y="1773"/>
      <point x="694" y="1699"/>
      <point x="655" y="1699" type="curve" smooth="yes"/>
      <point x="614" y="1699"/>
      <point x="617" y="1771"/>
      <point x="617" y="1799" type="curve"/>
      <point x="455" y="1799" type="line"/>
      <point x="455" y="1673"/>
      <point x="542" y="1597"/>
    </contour>
  </outline>
</glyph>
<glyph name="Hcircumflex" format="1">
  <advance width="1055"/>
  <unicode hex="0124"/>
  <outline>
    <contour>
      <point x="87" y="0" type="line"/>
      <point x="391" y="0" type="line"/>
      <point x="391" y="665" type="line"/>
      <point x="668" y="665" type="line"/>
      <point x="668" y="0" type="line"/>
      <point x="973" y="0" type="line"/>
      <point x="973" y="1509" type="line"/>
      <point x="668" y="1509" type="line"/>
      <point x="668" y="910" type="line"/>
      <point x="391" y="910" type="line"/>
      <point x="391" y="1509" type="line"/>
      <point x="87" y="1509" type="line"/>
    </contour>
    <contour>
      <point x="99" y="1502" type="line"/>
      <point x="428" y="1502" type="line"/>
      <point x="525" y="1627" type="line"/>
      <point x="626" y="1502" type="line"/>
      <point x="963" y="1502" type="line"/>
      <point x="812" y="1920" type="line"/>
      <point x="240" y="1920" type="line"/>
    </contour>
  </outline>
</glyph>
<glyph name="hcircumflex" format="1">
  <advance width="871"/>
  <unicode hex="0125"/>
  <outline>
    <contour>
      <point x="106" y="0" type="line"/>
      <point x="482" y="0" type="line"/>
      <point x="482" y="843" type="line" smooth="yes"/>
      <point x="482" y="846"/>
      <point x="544" y="868"/>
      <point x="539" y="868" type="curve" smooth="yes"/>
      <point x="544" y="868"/>
      <point x="557" y="854"/>
      <point x="557" y="792" type="curve" smooth="yes"/>
      <point x="557" y="0" type="line"/>
      <point x="934" y="0" type="line"/>
      <point x="934" y="923" type="line" smooth="yes"/>
      <point x="934" y="999"/>
      <point x="895" y="1115"/>
      <point x="788" y="1115" type="curve" smooth="yes"/>
      <point x="658" y="1115"/>
      <point x="591" y="1090"/>
      <point x="482" y="1027" type="curve"/>
      <point x="482" y="1515" type="line"/>
      <point x="106" y="1515" type="line"/>
    </contour>
    <contour>
      <point x="24" y="1577" type="line"/>
      <point x="314" y="1577" type="line"/>
      <point x="411" y="1740" type="line"/>
      <point x="515" y="1577" type="line"/>
      <point x="811" y="1577" type="line"/>
      <point x="660" y="1951" type="line"/>
      <point x="163" y="1951" type="line"/>
    </contour>
  </outline>
</glyph>
<glyph name="Ydieresis" format="1">
  <advance width="1263"/>
  <unicode hex="0178"/>
  <outline>
    <contour>
      <point x="354" y="0" type="line"/>
      <point x="691" y="0" type="line"/>
      <point x="691" y="486" type="line"/>
      <point x="1266" y="1507" type="line"/>
      <point x="922" y="1507" type="line"/>
      <point x="823" y="1268"/>
      <point x="726" y="1075"/>
      <point x="626" y="836" type="curve"/>
      <point x="358" y="1507" type="line"/>
      <point x="-2" y="1507" type="line"/>
      <point x="354" y="486" type="line"/>
    </contour>
    <contour>
      <point x="210" y="1671" type="line"/>
      <point x="511" y="1671" type="line"/>
      <point x="511" y="1939" type="line"/>
      <point x="210" y="1939" type="line"/>
    </contour>
    <contour>
      <point x="750" y="1671" type="line"/>
      <point x="1053" y="1671" type="line"/>
      <point x="1053" y="1939" type="line"/>
      <point x="750" y="1939" type="line"/>
    </contour>
  </outline>
</glyph>
<glyph name="florin" format="1">
  <advance width="456"/>
  <unicode hex="0192"/>
  <outline>
    <contour>
      <point x="84" y="-223" type="curve" smooth="yes"/>
      <point x="324" y="-223"/>
      <point x="309" y="-38"/>
      <point x="309" y="114" type="curve" smooth="yes"/>
      <point x="309" y="983" type="line"/>
      <point x="466" y="983" type="line"/>
      <point x="466" y="1198" type="line"/>
      <point x="309" y="1198" type="line"/>
      <point x="309" y="1119" type="line" smooth="yes"/>
      <point x="309" y="1189"/>
      <point x="322" y="1236"/>
      <point x="366" y="1236" type="curve" smooth="yes"/>
      <point x="385" y="1236"/>
      <point x="421" y="1228"/>
      <point x="452" y="1225" type="curve"/>
      <point x="452" y="1400" type="line"/>
      <point x="390" y="1407"/>
      <point x="375" y="1411"/>
      <point x="332" y="1411" type="curve" smooth="yes"/>
      <point x="74" y="1411"/>
      <point x="85" y="1244"/>
      <point x="85" y="1089" type="curve" smooth="yes"/>
      <point x="85" y="1198" type="line"/>
      <point x="-32" y="1198" type="line"/>
      <point x="-32" y="983" type="line"/>
      <point x="85" y="983" type="line"/>
      <point x="85" y="88" type="line" smooth="yes"/>
      <point x="85" y="14"/>
      <point x="74" y="-48"/>
      <point x="22" y="-48" type="curve" smooth="yes"/>
      <point x="6" y="-48"/>
      <point x="-29" y="-43"/>
      <point x="-57" y="-38" type="curve"/>
      <point x="-57" y="-212" type="line"/>
      <point x="9" y="-220"/>
      <point x="41" y="-223"/>
    </contour>
  </outline>
</glyph>
<glyph name="circumflex" format="1">
  <advance width="861"/>
  <unicode hex="02C6"/>
  <outline>
    <contour>
      <point x="49" y="1119" type="line"/>
      <point x="308" y="1119" type="line"/>
      <point x="439" y="1279" type="line"/>
      <point x="570" y="1119" type="line"/>
      <point x="835" y="1119" type="line"/>
      <point x="577" y="1492" type="line"/>
      <point x="280" y="1492" type="line"/>
    </contour>
  </outline>
</glyph>
<glyph name="breve" format="1">
  <advance width="562"/>
  <unicode hex="02D8"/>
  <outline>
    <contour>
      <point x="261" y="1147" type="curve" smooth="yes"/>
      <point x="374" y="1147"/>
      <point x="461" y="1222"/>
      <point x="461" y="1348" type="curve"/>
      <point x="300" y="1348" type="line"/>
      <point x="300" y="1322"/>
      <point x="301" y="1249"/>
      <point x="261" y="1249" type="curve" smooth="yes"/>
      <point x="220" y="1249"/>
      <point x="223" y="1320"/>
      <point x="223" y="1348" type="curve"/>
      <point x="61" y="1348" type="line"/>
      <point x="61" y="1222"/>
      <point x="148" y="1147"/>
    </contour>
  </outline>
</glyph>
<glyph name="ring" format="1">
  <advance width="625"/>
  <unicode hex="02DA"/>
  <outline>
    <contour>
      <point x="305" y="1322" type="curve" smooth="yes"/>
      <point x="240" y="1322"/>
      <point x="203" y="1345"/>
      <point x="203" y="1433" type="curve" smooth="yes"/>
      <point x="203" y="1520"/>
      <point x="240" y="1542"/>
      <point x="303" y="1542" type="curve" smooth="yes"/>
      <point x="369" y="1542"/>
      <point x="407" y="1520"/>
      <point x="407" y="1431" type="curve" smooth="yes"/>
      <point x="407" y="1344"/>
      <point x="369" y="1322"/>
    </contour>
    <contour>
      <point x="305" y="1224" type="curve" smooth="yes"/>
      <point x="465" y="1224"/>
      <point x="523" y="1309"/>
      <point x="523" y="1432" type="curve" smooth="yes"/>
      <point x="523" y="1554"/>
      <point x="463" y="1639"/>
      <point x="305" y="1639" type="curve" smooth="yes"/>
      <point x="145" y="1639"/>
      <point x="87" y="1555"/>
      <point x="87" y="1432" type="curve" smooth="yes"/>
      <point x="87" y="1309"/>
      <point x="145" y="1224"/>
    </contour>
  </outline>
</glyph>
<glyph name="hungarumlaut" format="1">
  <advance width="972"/>
  <unicode hex="02DD"/>
  <outline>
    <contour>
      <point x="18" y="1246" type="line"/>
      <point x="225" y="1246" type="line"/>
      <point x="557" y="1552" type="line"/>
      <point x="134" y="1552" type="line"/>
    </contour>
    <contour>
      <point x="360" y="1246" type="line"/>
      <point x="736" y="1246" type="line"/>
      <point x="840" y="1552" type="line"/>
      <point x="552" y="1552" type="line"/>
    </contour>
  </outline>
</glyph>
<glyph name="emdash" format="1">
  <advance width="791"/>
  <unicode hex="2014"/>
  <outline>
    <contour>
      <point x="4" y="361" type="line"/>
      <point x="787" y="361" type="line"/>
      <point x="787" y="565" type="line"/>
      <point x="4" y="565" type="line"/>
    </contour>
  </outline>
</glyph>
<glyph name="dagger" format="1">
  <advance width="537"/>
  <unicode hex="2020"/>
  <outline>
    <contour>
      <point x="158" y="0" type="line"/>
      <point x="383" y="0" type="line"/>
      <point x="383" y="701" type="line"/>
      <point x="485" y="701" type="line"/>
      <point x="485" y="957" type="line"/>
      <point x="383" y="957" type="line"/>
      <point x="383" y="1178" type="line"/>
      <point x="158" y="1178" type="line"/>
      <point x="158" y="957" type="line"/>
      <point x="53" y="957" type="line"/>
      <point x="53" y="701" type="line"/>
      <point x="158" y="701" type="line"/>
    </contour>
  </outline>
</glyph>
<glyph name="daggerdbl" format="1">
  <advance width="512"/>
  <unicode hex="2021"/>
  <outline>
    <contour>
      <point x="145" y="0" type="line"/>
      <point x="370" y="0" type="line"/>
      <point x="370" y="351" type="line"/>
      <point x="472" y="351" type="line"/>
      <point x="472" y="607" type="line"/>
      <point x="370" y="607" type="line"/>
      <point x="370" y="802" type="line"/>
      <point x="472" y="802" type="line"/>
      <point x="472" y="1058" type="line"/>
      <point x="370" y="1058" type="line"/>
      <point x="370" y="1178" type="line"/>
      <point x="145" y="1178" type="line"/>
      <point x="145" y="1058" type="line"/>
      <point x="40" y="1058" type="line"/>
      <point x="40" y="802" type="line"/>
      <point x="145" y="802" type="line"/>
      <point x="145" y="607" type="line"/>
      <point x="40" y="607" type="line"/>
      <point x="40" y="351" type="line"/>
      <point x="145" y="351" type="line"/>
    </contour>
  </outline>
</glyph>
<glyph name="bullet" format="1">
  <advance width="995"/>
  <unicode hex="2022"/>
  <outline>
    <contour>
      <point x="497" y="266" type="curve" smooth="yes"/>
      <point x="744" y="266"/>
      <point x="939" y="373"/>
      <point x="939" y="591" type="curve" smooth="yes"/>
      <point x="939" y="813"/>
      <point x="745" y="921"/>
      <point x="496" y="921" type="curve" smooth="yes"/>
      <point x="251" y="921"/>
      <point x="57" y="813"/>
      <point x="57" y="591" type="curve" smooth="yes"/>
      <point x="57" y="372"/>
      <point x="251" y="266"/>
    </contour>
  </outline>
</glyph>
<glyph name="ellipsis" format="1">
  <advance width="1225"/>
  <unicode hex="2026"/>
  <outline>
    <contour>
      <point x="66" y="0" type="line"/>
      <point x="344" y="0" type="line"/>
      <point x="344" y="266" type="line"/>
      <point x="66" y="266" type="line"/>
    </contour>
    <contour>
      <point x="947" y="0" type="line"/>
      <point x="1225" y="0" type="line"/>
      <point x="1225" y="266" type="line"/>
      <point x="947" y="266" type="line"/>
    </contour>
    <contour>
      <point x="1828" y="0" type="line"/>
      <point x="2106" y="0" type="line"/>
      <point x="2106" y="266" type="line"/>
      <point x="1828" y="266" type="line"/>
    </contour>
  </outline>
</glyph>
<glyph name="fraction" format="1">
  <advance width="261"/>
  <unicode hex="2044"/>
  <outline>
    <contour>
      <point x="-30" y="0" type="line"/>
      <point x="115" y="0" type="line"/>
      <point x="157" y="1513" type="line"/>
      <point x="9" y="1513" type="line"/>
    </contour>
  </outline>
</glyph>
<glyph name="trademark" format="1">
  <advance width="2493"/>
  <unicode hex="2122"/>
  <outline>
    <contour>
      <point x="768" y="462" type="line"/>
      <point x="903" y="462" type="line"/>
      <point x="903" y="866" type="line"/>
      <point x="1120" y="374" type="line"/>
      <point x="1269" y="374" type="line"/>
      <point x="1490" y="866" type="line"/>
      <point x="1490" y="462" type="line"/>
      <point x="1626" y="462" type="line"/>
      <point x="1626" y="1155" type="line"/>
      <point x="1339" y="1155" type="line"/>
      <point x="1195" y="800" type="line"/>
      <point x="1055" y="1155" type="line"/>
      <point x="768" y="1155" type="line"/>
    </contour>
    <contour>
      <point x="235" y="462" type="line"/>
      <point x="379" y="462" type="line"/>
      <point x="379" y="1021" type="line"/>
      <point x="640" y="1021" type="line"/>
      <point x="640" y="1155" type="line"/>
      <point x="141" y="1155" type="line"/>
      <point x="141" y="1021" type="line"/>
      <point x="235" y="1021" type="line"/>
    </contour>
  </outline>
</glyph>
